<?xml version="1.0" standalone="no"?>
<!DOCTYPE svg PUBLIC "-//W3C//DTD SVG 1.1//EN" "http://www.w3.org/Graphics/SVG/1.1/DTD/svg11.dtd" >
<!--
2013-9-30: Created.
-->
<svg>
<metadata>
Created by iconfont
</metadata>
<defs>

<font id="iconfont" horiz-adv-x="1024" >
  <font-face
    font-family="iconfont"
    font-weight="500"
    font-stretch="normal"
    units-per-em="1024"
    ascent="896"
    descent="-128"
  />
    <missing-glyph />
    
    <glyph glyph-name="x" unicode="x" horiz-adv-x="1001"
d="M281 543q-27 -1 -53 -1h-83q-18 0 -36.5 -6t-32.5 -18.5t-23 -32t-9 -45.5v-76h912v41q0 16 -0.5 30t-0.5 18q0 13 -5 29t-17 29.5t-31.5 22.5t-49.5 9h-133v-97h-438v97zM955 310v-52q0 -23 0.5 -52t0.5 -58t-10.5 -47.5t-26 -30t-33 -16t-31.5 -4.5q-14 -1 -29.5 -0.5
t-29.5 0.5h-32l-45 128h-439l-44 -128h-29h-34q-20 0 -45 1q-25 0 -41 9.5t-25.5 23t-13.5 29.5t-4 30v167h911zM163 247q-12 0 -21 -8.5t-9 -21.5t9 -21.5t21 -8.5q13 0 22 8.5t9 21.5t-9 21.5t-22 8.5zM316 123q-8 -26 -14 -48q-5 -19 -10.5 -37t-7.5 -25t-3 -15t1 -14.5
t9.5 -10.5t21.5 -4h37h67h81h80h64h36q23 0 34 12t2 38q-5 13 -9.5 30.5t-9.5 34.5q-5 19 -11 39h-368zM336 498v228q0 11 2.5 23t10 21.5t20.5 15.5t34 6h188q31 0 51.5 -14.5t20.5 -52.5v-227h-327z" />
    

    
    <glyph glyph-name="gouwu" unicode="&#58880;" d="M838.656 702.464q-117.76-9.216-211.968-16.384-39.936-3.072-79.36-6.144t-71.68-5.12-54.272-4.096-26.112-2.048q-5.12-1.024-11.776-1.536t-11.776-2.56l-12.288-4.096-45.056 20.48q5.12 7.168 12.288 13.312 5.12 5.12 12.8 9.728t15.872 5.632q6.144 1.024 32.768 3.072t65.536 5.12q0 13.312 2.56 36.352t12.288 45.568 28.16 39.936 50.176 20.48q36.864 3.072 59.904-11.264t35.84-35.328 17.92-43.008 6.144-34.304q44.032 3.072 73.216 5.12t32.256 3.072q11.264 1.024 25.088-4.096t22.016-13.312q2.048-2.048 5.632-6.144t6.656-8.192q4.096-4.096 7.168-10.24zM555.008 824.32q-19.456-2.048-31.232-13.824t-17.92-28.16-8.192-33.28-2.048-27.136q31.744 2.048 65.024 5.12t65.024 5.12q-1.024 9.216-4.608 25.6t-11.776 31.744-21.504 25.6-32.768 9.216zM955.392 71.68q5.12-28.672-1.536-47.616t-37.376-26.112q-10.24-3.072-44.544-10.24t-81.92-17.408-101.888-22.016-103.936-22.016-89.088-18.432-55.808-11.264q-37.888-8.192-55.808 5.12t-17.92 39.936l0 628.736q0 25.6 10.752 41.472t31.232 16.896q8.192 0 19.968 1.024t23.04 2.048q13.312 1.024 27.648 2.048l9.216-146.432q-1.024-1.024-4.096-1.024-2.048 0-6.144-0.512t-9.216-0.512q-21.504-2.048-20.48-25.6 1.024-9.216 2.048-25.6t1.536-34.304 1.536-34.816 2.048-27.136q1.024-19.456 6.144-22.016t22.528-2.56l14.336 0q6.144 0 11.776 0.512t12.8 1.024 18.432 1.536q21.504 2.048 27.648 9.216t5.12 21.504q0 7.168-1.536 25.088t-3.072 37.376-2.56 36.864-2.048 24.576q-2.048 12.288-5.12 17.408t-11.264 4.096q-4.096 0-8.192-0.512t-8.192-0.512l-8.192 0-9.216 145.408q69.632 6.144 128 10.24 24.576 2.048 49.664 4.096t46.592 3.584 37.888 3.072 24.576 2.56q29.696 2.048 47.104-10.24t21.504-36.864q1.024-8.192 7.168-49.152t15.36-98.304 19.456-123.392 19.456-123.392 15.872-98.304 8.704-49.152zM311.296-17.408q0-14.336 1.536-25.088t3.584-16.896q2.048-8.192 5.12-12.288-25.6 13.312-49.152 26.624-20.48 11.264-40.96 23.04t-34.816 19.968q-26.624 15.36-36.352 36.864t-4.608 45.056q2.048 6.144 9.216 45.056t17.92 94.208 22.528 118.784 22.016 118.784 17.92 95.232 8.704 47.104q4.096 22.528 14.848 34.816t25.088 6.144q8.192-4.096 13.312-9.216 3.072-3.072 4.096-5.12l0-643.072z"  horiz-adv-x="1024" />

    
    <glyph glyph-name="pin" unicode="&#58881;" d="M471.407367 3.228511q3.002595-135.116761-144.124545-131.113302l-276.238712 0 0 482.416881 420.363257 0 0-351.303579zM308.266389-57.824248q78.067462-3.002595 74.064002 69.059678l0 271.234387-244.211035 0 0-340.294065 170.147033 0zM925.80003 634.774262q5.004324-154.133194-159.137519-149.12887l-608.525858 0 0 384.332121 767.663377 0 0-235.203251zM742.641754 549.700745q47.04065-2.00173 66.057083 22.51946t17.014703 75.5653l0 151.1306-573.495586 0 0-249.21536 490.4238 0zM1032.892575 3.228511q4.00346-135.116761-140.121086-131.113302l-285.246496 0 0 482.416881 425.367582 0 0-351.303579zM868.750731-57.824248q79.068327-3.002595 76.065732 69.059678l0 271.234387-248.214495 0 0-340.294065 172.148762 0z"  horiz-adv-x="1034" />

    
    <glyph glyph-name="dianyingpiao" unicode="&#58882;" d="M908.036096 707.364762c73.681101-88.004301 115.638477-201.591296 115.638477-324.388045 0-281.409229-229.230182-510.629786-510.651187-510.629786-283.467674 0-512.697958 229.220557-512.697958 510.629786 0 283.455795 229.230182 512.676454 512.697958 512.676454 125.871923 0 239.463731-45.025485 328.495104-119.726797 65.494323-9.209754 96.194867 9.209754 115.638477 92.097536l66.517709-22.512742C999.11424 763.646566 960.226918 719.644467 908.036096 707.364762L908.036096 707.364762zM221.368832 502.703514c-64.47104 0-117.685146-53.211955-117.685146-119.726797 0-64.468275 53.214106-119.726797 117.685146-119.726797 66.517709 0 119.731814 55.258522 119.731814 119.726797C341.100646 449.491558 287.886541 502.703514 221.368832 502.703514L221.368832 502.703514zM513.023386 792.299213c-66.517709 0-119.731814-53.211955-119.731814-117.68023 0-66.514944 53.214106-119.726797 119.731814-119.726797 64.47104 0 119.731814 53.211955 119.731814 119.726797C632.7552 739.087258 577.494323 792.299213 513.023386 792.299213L513.023386 792.299213zM444.458906 382.976717c0-37.862298 30.700442-67.538227 68.564378-67.538227s67.541094 29.67593 67.541094 67.538227-29.677158 68.56151-67.541094 68.56151S444.458906 420.839014 444.458906 382.976717L444.458906 382.976717zM513.023386 213.107814c-66.517709 0-119.731814-54.235238-119.731814-119.726797 0-66.514944 53.214106-119.726797 119.731814-119.726797 64.47104 0 119.731814 53.211955 119.731814 119.726797C632.7552 158.872678 577.494323 213.107814 513.023386 213.107814L513.023386 213.107814zM682.899354 382.976717c0-64.468275 54.237491-119.726797 119.731814-119.726797 66.517709 0 119.731814 55.258522 119.731814 119.726797 0 66.514944-53.214106 119.726797-119.731814 119.726797C737.136845 502.703514 682.899354 449.491558 682.899354 382.976717z"  horiz-adv-x="1024" />

    
    <glyph glyph-name="83" unicode="&#58991;" d="M170.833 403.833C113.484 403.833 67 357.349 67 300s46.484-103.833 103.833-103.833c57.349 0 103.833 46.484 103.833 103.833S228.182 403.833 170.833 403.833zM170.833 225.833c-40.893 0-74.167 33.274-74.167 74.167 0 40.894 33.274 74.167 74.167 74.167C211.727 374.167 245 340.894 245 300 245 259.107 211.727 225.833 170.833 225.833zM512 403.833c-57.349 0-103.833-46.484-103.833-103.833S454.651 196.167 512 196.167 615.833 242.651 615.833 300 569.349 403.833 512 403.833zM512 225.833c-40.893 0-74.167 33.274-74.167 74.167 0 40.894 33.274 74.167 74.167 74.167 40.893 0 74.166-33.273 74.166-74.167C586.166 259.107 552.893 225.833 512 225.833zM853.167 403.833c-57.35 0-103.834-46.484-103.834-103.833s46.484-103.833 103.834-103.833C910.516 196.167 957 242.651 957 300S910.516 403.833 853.167 403.833zM853.167 225.833C812.273 225.833 779 259.107 779 300c0 40.894 33.273 74.167 74.167 74.167 40.893 0 74.166-33.273 74.166-74.167C927.333 259.107 894.06 225.833 853.167 225.833z"  horiz-adv-x="1024" />

    
    <glyph glyph-name="msnui-more" unicode="&#59001;" d="M169.002 489.682c-57.562 0-104.228-46.646-104.228-104.228 0-57.563 46.666-104.209 104.228-104.209s104.228 46.646 104.228 104.209c0 57.582-46.667 104.228-104.228 104.228zM501.431 489.682c-57.562 0-104.228-46.646-104.228-104.228 0-57.563 46.667-104.209 104.228-104.209s104.228 46.646 104.228 104.209c0 57.582-46.666 104.228-104.228 104.228zM854.638 489.682c-57.563 0-104.23-46.646-104.23-104.228 0-57.563 46.667-104.209 104.23-104.209s104.228 46.646 104.228 104.209c-0.001 57.582-46.666 104.228-104.228 104.228z"  horiz-adv-x="1024" />

    
    <glyph glyph-name="shuidianmei" unicode="&#58886;" d="M511.803014 832.501804c0 0-387.271254-306.336944-387.271254-514.854001 0-208.517057 173.386956-377.554962 387.271254-377.554962 213.877135 0 387.272277 169.037904 387.272277 377.554962C899.076314 526.16486 511.803014 832.501804 511.803014 832.501804zM478.12703 108.472759l33.675984 168.379918L343.425142 276.852678l218.892359 269.406846-33.67496-168.379918 168.377872 0L478.12703 108.472759z"  horiz-adv-x="1024" />

    
    <glyph glyph-name="shoujichongzhi" unicode="&#58919;" d="M772.839215 832.055642 250.9858 832.055642c-51.463092 0-93.188402-41.726334-93.188402-93.188402l0-708.231243c0-51.470255 41.726334-93.187379 93.188402-93.187379l521.854439 0c51.452859 0 93.188402 41.718147 93.188402 93.187379L866.028641 738.86724C866.028641 790.329309 824.293097 832.055642 772.839215 832.055642zM456.00008 776.142192l111.823831 0c10.29446 0 18.638499-8.345062 18.638499-18.637476s-8.344039-18.637476-18.638499-18.637476L456.00008 738.86724c-10.29446 0-18.637476 8.345062-18.637476 18.637476S445.70562 776.142192 456.00008 776.142192zM511.912507-6.637931c-30.879288 0-55.912427 25.036209-55.912427 55.912427 0 30.878265 25.03314 55.915497 55.912427 55.915497 30.888498 0 55.912427-25.037233 55.912427-55.915497C567.824935 18.398278 542.799982-6.637931 511.912507-6.637931zM754.200716 179.738873 269.623275 179.738873 269.623275 682.953789 754.200716 682.953789 754.200716 179.738873z"  horiz-adv-x="1024" />

    
    <glyph glyph-name="jipiao" unicode="&#58929;" d="M888.80846 604.246193c-0.437975-0.434905-0.915859-0.793062-1.359974-1.218758l0.063445-0.063445L723.388966 457.16844l47.583738-183.622064 15.797801-60.975746 53.867862-207.838605-0.11154-0.063445c2.869351-9.28855 0.725524-19.774369-6.659677-27.119661-10.650571-10.595312-27.90556-10.595312-38.548968 0-0.50142 0.494257-0.851391 1.068332-1.305739 1.577938-0.517793 0.446162-1.090844 0.812505-1.584078 1.306762-0.477884 0.460488-0.820692 1.019213-1.25969 1.51347l-0.191358-0.079818L544.650119 298.385087 406.896732 176.005852l-0.3776 0.049119-32.184003-145.177474-0.059352-0.017396c-0.319272-6.483668-2.876514-12.872169-7.854898-17.844413-10.651594-10.579963-27.90556-10.579963-38.553061 0-3.197832 3.185552-5.318122 6.993275-6.593162 11.010775l-0.055259-0.017396-49.312102 120.497375L149.574109 193.834916c-0.405229 0.144286-0.804319 0.301875-1.202385 0.477884l-0.433882 0.177032 0.007163 0.047072c-2.895957 1.305739-5.63944 3.075035-8.021697 5.433756-10.646478 10.595312-10.646478 27.770484 0 38.349423 4.983501 4.955872 11.416004 7.503904 17.936511 7.824199l0.011256 0.063445 146.222269 32.072463 123.166157 137.179312L111.009791 658.245038l0.115634 0.258896c-0.682545 0.557702-1.407046 1.027399-2.044566 1.661849-10.646478 10.591219-10.646478 27.758204 0 38.349423 6.404873 6.369058 15.192004 8.831132 23.500227 7.53972l0.004093 0.004093 0.039909-0.008186c1.330298-0.210801 2.628874-0.565888 3.923356-0.972141l200.997803-49.665143 61.761646-15.262612 187.969069-46.447868 146.028864 162.655544 0.064468-0.068562c0.430812 0.443092 0.795109 0.912789 1.225921 1.350764 44.156686 44.598754 127.047558 57.695027 169.628352 15.335267C946.812525 730.615299 933.144224 648.844947 888.80846 604.246193zM812.212968 750.076536c-33.161261 0-60.853973-23.305799-67.687612-54.42147l94.574982-78.842673c24.941042 10.499122 42.450834 35.166941 42.450834 63.925938C881.552196 719.032496 850.508155 750.076536 812.212968 750.076536z"  horiz-adv-x="1024" />

    
    <glyph glyph-name="aixinjuanzeng" unicode="&#58931;" d="M912.244 653.305c-114.529 97.079-280.677 50.813-361.045-42.605-59.602 79.381-181.23 164.423-339.671 101.361-205.974-81.951-259.759-383.466 4.902-571.391 84.483-59.969 186.926-97.008 246.575-112.23 36.23-9.302 67.701-15.915 67.701-15.915s2.107 9.086 14.226 10.465c12.13 1.356 10.169 15.345 25.74 18.174 15.556 2.807 17.958 12.703 17.958 12.703s-175.165 28.38-314.753 138.613c-168.801 133.236-136.794 283.697-67.595 364.481 76.61 89.491 189.342 94.535 266.26 49.908 71.402-41.486 108.737-100.767 102.921-157.358-5.507-53.619-34.649-34.183-43.425-8.541-12.347 36.158 3.995 64.132 9.017 76.907-9.586 13.417-18.711 24.834-30.236 33.518-10.405-19.887-23.075-47.41-17.198-82.736 9.171-55.14 74.172-90.822 93.631-37.586 9.55 26.191 15.546 78.478-6.708 130.526 37.573 35.825 86.54 67.178 169.013 50.787 77.538-15.367 139.982-103.43 106.442-205.339-42.081-127.886-173.844-126.505-173.844-126.505s0.69-31.424-13.357-46.769c-23.074-25.167-4.127-41.794-14.676-54.974-10.443-13.178-2.711-49.812-2.711-49.812s110.127 17.222 214.663 93.344c121.331 88.35 180.67 316.955 46.173 430.971z"  horiz-adv-x="1024" />

    
    <glyph glyph-name="chengshifuwu" unicode="&#58938;" d="M921.66-2.114l-840.09 0.425c0 0-90.418-4.057-18.761 63.969 18.829 10.309 40.889 19.91 65.632 28.643-6.166 13.879-9.717 29.371-9.717 45.791 0 58.646 44.015 106.176 98.318 106.176 54.303 0 98.318-47.531 98.318-106.176 0-1.248-0.133-2.463-0.173-3.693 6.338 0.821 12.735 1.625 19.201 2.368l0 549.18c0 36.084 26.701 64.676 62.899 64.676l376.887 0c36.198 0 61.463-28.593 61.463-64.676l0-579.987c43.991-12.33 81.826-27.018 111.415-43.548 107.844-71.911-25.396-63.147-25.396-63.147zM544.59 603.721c0 18.039-14.231 32.338-32.337 32.338l-64.676 0c-18.103 0-32.337-14.299-32.337-32.338l0-88.937c0-18.033 22.318-32.338 40.423-32.338l56.591 0c18.107 0 32.337 14.305 32.337 32.338l0 88.937zM544.59 369.261c0 18.047-14.231 32.337-32.337 32.337l-64.676 0c-18.103 0-32.337-14.29-32.337-32.337l0-88.933c0-18.033 22.318-32.338 40.423-32.338l56.591 0c18.107 0 32.337 14.305 32.337 32.338l0 88.933zM754.794 603.721c0 18.039-14.235 32.338-32.337 32.338l-64.679 0c-18.103 0-32.338-14.299-32.338-32.338l0-88.937c0-18.033 22.321-32.338 40.423-32.338l56.594 0c18.103 0 32.337 14.305 32.337 32.338l0 88.937zM754.794 369.261c0 18.047-14.235 32.337-32.337 32.337l-64.679 0c-18.103 0-32.338-14.29-32.338-32.337l0-88.933c0-18.033 22.321-32.338 40.423-32.338l56.594 0c18.103 0 32.337 14.305 32.337 32.338l0 88.933z"  horiz-adv-x="1024" />

    
    <glyph glyph-name="tansuoa" unicode="&#58985;" d="M797.759791 209.246931c0.058328-65.555042-24.419156-101.028974-33.951253-112.39893-36.371372-30.979572-78.603219-55.397704-124.84131-71.415516 22.933315 42.310641 5.3918 92.550883-0.684592 107.201557-10.333346 24.88783-44.456514 67.431785-101.400435 126.46325-15.177678 15.783475-14.20042 27.894304-8.750291 63.875796l0.605797 4.064572c3.711532 24.650423 9.882068 39.223327 93.802386 52.389184 42.661635 6.680143 53.872978-10.158361 69.424162-33.481556 1.718131-2.577708 3.416819-5.117554 5.173836-7.656377 14.787798-21.332864 25.707498-26.215058 42.25436-33.638121 7.40055-3.320629 16.643052-7.500834 29.02608-14.4542 29.341259-16.565281 29.341259-35.280528 29.341259-76.299757L797.759791 209.246931zM511.743662 766.080022c59.852156 0 116.539226-13.477966 167.152974-37.582967-27.799136-17.385972-67.765383-44.576241-84.212984-66.845431-6.093788-8.243755-11.329023-16.056698-16.174378-23.245424-16.074094-23.908526-23.790846-34.574447-38.598086-36.411281-7.345292-0.898463-17.189498-0.273223-27.641547 0.390903-27.952632 1.796926-66.219167 4.220115-78.466096-28.636201-7.776104-20.823258-9.143241-77.353762 16.016789-106.693997 4.02364-4.688789 4.805446-13.361309 2.069125-23.087834-3.593851-12.775978-10.860349-20.550035-13.125949-22.152533-4.336772 2.463098-12.989849 12.385075-18.829857 19.144012-14.162558 16.21224-31.762401 36.411281-54.53915 42.660612-8.281617 2.267647-17.404392 4.142343-26.213012 5.979178-24.711821 5.116531-52.704362 10.93812-59.228963 24.650423-4.707209 10.04068-4.707209 23.870664-4.707209 38.48143 0.020466 18.517749 0.020466 39.458687-9.160637 59.813271-7.950066 17.696034-21.995967 27.26804-36.763298 31.956829C299.878346 719.237157 400.342456 766.080022 511.743662 766.080022zM838.429049 644.969687c0 0-5.666046 9.376555-15.256472 9.336646-9.397021-0.038886-17.015535-7.499811-17.015535-16.798595 0-6.134721 2.443655-9.29776 2.443655-9.29776 55.612599-66.024739 89.228207-150.723793 89.228207-243.119133 0-81.143065-25.920346-156.388816-69.930699-218.272235 2.130524 12.814864 3.477194 26.840298 3.456728 42.428322l0 4.608971c0 42.427298 0.021489 79.034031-46.272883 105.132432-13.732769 7.737218-23.734564 12.226462-31.781844 15.860223-14.535041 6.486738-18.929118 8.479115-28.42233 22.153556-1.641383 2.381234-3.263323 4.803399-4.864798 7.186679-16.309454 24.49488-38.696324 58.054207-102.709243 47.974641-86.143962-13.477966-114.585735-32.230052-121.813347-80.284511l-0.606821-4.02364c-5.350868-35.395138-9.56996-63.368236 17.681708-91.613534 70.868047-73.486688 89.698928-104.35165 94.601588-116.187209 9.785877-23.51967 15.256472-57.039087 1.307785-80.674391-10.549264-17.932418-33.597189-29.614481-64.85203-33.873482-10.527774-0.859577-21.135366-1.406023-31.879058-1.406023-212.879412 0-386.067846 170.921811-386.067846 380.989177 0 86.339414 29.281907 166.037571 78.526471 229.991138 10.19827-0.078795 25.179472-2.656503 31.175023-16.017812 6.291287-13.907755 6.291287-29.652344 6.251378-46.295396 0-17.618263 0-35.864836 7.892761-52.54575 13.595646-28.754904 50.339502-36.371372 82.745563-43.091424 8.692986-1.796926 16.877389-3.477194 24.142863-5.469572 12.933567-3.554966 26.253944-18.830881 38.014802-32.347732 14.453177-16.565281 26.936489-30.903847 43.949978-30.903847 18.59552 0 33.383318 17.308201 40.981367 33.521464 9.103332 19.337417 12.874215 46.998407-3.906983 66.531276-15.744589 18.439978-14.747889 61.375859-10.119475 73.877591 3.323699 8.867972 21.449521 8.438183 44.773739 6.953366 11.56336-0.741897 23.477714-1.484817 33.968649-0.196475 30.746258 3.790326 45.432749 25.629727 62.449307 50.944276 4.571109 6.837732 9.55154 14.260795 15.313777 22.074761 14.787798 20.001543 61.318554 50.279127 88.997963 66.884316 0 0 18.107403 11.094686 20.86112 13.048177 1.602498 1.171686 10.235109 9.688663-2.499937 17.306154-63.446008 37.934984-137.831158 59.891042-217.450521 59.891042-231.79011 0-419.684478-185.414897-419.684478-414.156578s187.894368-414.157601 419.684478-414.157601c231.79011 0 419.685501 185.41592 419.685501 414.157601C931.429163 483.54211 896.561028 573.904141 838.429049 644.969687z"  horiz-adv-x="1024" />

    
    <glyph glyph-name="tansuob" unicode="&#58986;" d="M638.521067 131.683391c-10.333346 24.882714-44.436048 67.423599-101.371782 126.448924-15.196097 15.782451-14.217816 27.892257-8.789177 63.869656l0.62524 4.063549c3.690042 24.648376 9.882068 39.220257 93.812619 52.384068 42.638099 6.67912 53.850465-10.157337 69.39551-33.477462 1.720178-2.579755 3.439332-5.117554 5.196349-7.656377 14.766308-21.330818 25.704428-26.211988 42.2298-33.634028 7.402597-3.320629 16.641005-7.501858 29.021987-14.453177 29.339212-16.565281 29.339212-35.275411 29.339212-76.292594l0-4.647857c0-65.551972-24.415063-101.022835-33.94716-112.388696-36.368302-30.979572-78.577636-55.392588-124.82903-71.408353C662.134881 66.796568 644.594389 117.031693 638.521067 131.683391zM511.993349 765.066949c59.846016 0 116.52797-13.476943 167.156044-37.58092-27.815509-17.383926-67.776639-44.573171-84.223217-66.838268-6.093788-8.242731-11.328-16.054651-16.173354-23.243377-16.054651-23.907503-23.788799-34.5724-38.59604-36.408211-7.342222-0.89744-17.187451-0.272199-27.616988 0.390903-27.969005 1.795902-66.23247 4.220115-78.480422-28.634154-7.774057-20.820188-9.141194-77.345576 16.016789-106.683764 4.024663-4.687766 4.804423-13.359262 2.070148-23.087834-3.594875-12.773931-10.859325-20.547988-13.124925-22.149463-4.337795 2.461051-12.989849 12.384052-18.8493 19.141966-14.122649 16.21224-31.739888 36.408211-54.513568 42.658565-8.280594 2.264577-17.383926 4.139274-26.211988 5.976108-24.708751 5.117554-52.697199 10.939143-59.20031 24.648376-4.747117 10.04068-4.726651 23.868617-4.708232 38.47836 0 18.516726 0 39.455617-9.18008 59.808154-7.968485 17.695011-22.01234 27.267017-36.758182 31.953759C300.148499 718.229201 400.602376 765.066949 511.993349 765.066949zM92.347756 384.11461c0-228.722238 187.879018-414.118716 419.645592-414.118716 231.767598 0 419.644569 185.396477 419.644569 414.118716 0 228.719168-187.876971 414.116669-419.644569 414.116669C280.225751 798.231279 92.347756 612.833779 92.347756 384.11461z"  horiz-adv-x="1024" />

    
    <glyph glyph-name="tubiao207" unicode="&#58904;" d="M511.574284 864.240169c-265.174892 0-480.091782-214.973175-480.091782-480.088712 0-265.11042 214.91689-480.088712 480.091782-480.088712 265.050042 0 480.089735 214.978292 480.089735 480.088712C991.662996 649.266994 776.624327 864.240169 511.574284 864.240169zM634.972511 198.243619c-25.254362-18.62916-55.759559-32.693131-92.016014-35.56876l0-59.20315-63.39072 0 0 60.140543c-38.752418 4.561095-66.634756 16.063608-90.137134 34.942466-31.133538 24.815342-40.636415 51.322291-46.758126 84.579291l95.39104 23.316127c0-31.320812 32.378961-67.198625 80.642443-67.198625 28.75219 0 63.134881 14.064995 62.758286 51.510588-0.249699 30.626977-32.630707 52.567714-67.635598 60.446527-36.258501 8.127488-109.521529 33.067679-129.773731 55.322587-20.381144 22.126988-26.007551 53.573673-26.007551 90.14225 0 31.442591 14.00564 63.198329 36.755852 82.393404 22.128011 18.687491 48.008667 30.691448 84.764518 35.190118l0 50.508724 63.39072 0 0-50.321449c34.754169-3.750597 63.385603-14.691288 85.390812-33.442227 27.377824-23.506471 41.254522-53.635074 41.254522-71.763813l-95.268237-22.378733c0 23.501354-35.255613 52.510406-59.259435 52.510406-31.130468 0-55.760583-8.754804-55.760583-47.694496 0-28.008211 21.256113-37.134493 58.139884-48.94913 62.010214-19.753827 109.017015-45.443115 130.644606-67.637644 21.504788-22.318355 32.257182-50.386944 32.257182-84.325499C680.355248 248.81272 664.72452 220.493409 634.972511 198.243619z"  horiz-adv-x="1025" />

    
    <glyph glyph-name="tubiao2071" unicode="&#58942;" d="M511.872081 799.712501c229.419881 0 416.077839-186.657957 416.077839-416.077839 0-229.417835-186.657957-416.075792-416.077839-416.075792-229.417835 0-416.079886 186.657957-416.079886 416.075792C95.792195 613.054544 282.454246 799.712501 511.872081 799.712501M511.872081 863.724398c-265.174892 0-480.091782-214.979315-480.091782-480.089735 0-265.109397 214.91689-480.091782 480.091782-480.091782 265.050042 0 480.089735 214.982385 480.089735 480.091782C991.960793 648.745083 776.922123 863.724398 511.872081 863.724398L511.872081 863.724398zM648.461357 374.633229c-21.631684 22.131081-68.639509 47.885864-130.649723 67.637644-36.881725 11.754259-58.137837 20.877471-58.137837 48.882612 0 39.011327 24.628068 47.762038 55.758536 47.762038 24.005868 0 59.264551-29.004959 59.264551-52.51143l95.267214 22.37771c0 18.134879-13.879768 48.265529-41.258615 71.767906-22.005209 18.752986-50.634596 29.630229-85.391835 33.380826l0 50.381827-63.38458 0 0-50.50463c-36.759945-4.50174-62.635484-16.505697-84.767588-35.26073-22.752258-19.12958-36.755852-50.882248-36.755852-82.388287 0-36.509223 5.623337-68.012192 26.003458-90.14532 20.252201-22.249791 93.518299-47.129604 129.772707-55.256069 35.008984-7.877789 67.391016-29.882998 67.640714-60.514068 0.374548-37.383169-34.006096-51.509565-62.761356-51.509565-48.258365 0-80.640397 35.881906-80.640397 67.260026l-95.393086-23.376505c6.124781-33.257 15.626635-59.759855 46.758126-84.516866 23.503401-18.877835 51.386762-30.378302 90.143274-35.003868l0-60.140543 63.38458 0 0 59.261481c36.257478 2.876652 66.760629 16.877175 92.017037 35.510428 29.758148 22.249791 45.385807 50.631526 45.385807 92.514388C680.716493 324.249355 669.965122 352.254496 648.461357 374.633229z"  horiz-adv-x="1025" />

    
    <glyph glyph-name="wodexian" unicode="&#58892;" d="M638.065695 303.689019c78.651314 40.328497 132.48029 122.221646 132.48029 216.676901 0 134.38671-108.960621 243.346307-243.348354 243.346307-134.385687 0-243.344261-108.959597-243.344261-243.346307 0-94.456279 53.827953-176.348404 132.47722-216.676901C223.571427 254.394313 81.063759 79.561425 81.063759-128.569846l40.558741 0c0 224.007867 181.578522 405.590482 405.575132 405.590482 224.000704 0 405.580249-181.580568 405.580249-405.590482l40.557718 0C973.334575 79.561425 830.826907 254.394313 638.065695 303.689019zM324.410066 520.36592c0 111.989607 90.798982 202.788589 202.787566 202.788589 111.991654 0 202.789613-90.798982 202.789613-202.788589s-90.796936-202.788589-202.789613-202.788589C415.210072 317.576307 324.410066 408.376313 324.410066 520.36592z"  horiz-adv-x="1024" />

    
    <glyph glyph-name="brand" unicode="&#58976;" d="M990.656 444.16c-3.712 25.856-17.472 45.056-41.344 56.192-21.568 10.112-44.672 12.672-68.032 9.92-26.816-3.2-47.168-16.896-57.728-42.368-9.088-21.696-10.24-44.48-5.952-67.52 2.816-14.72 9.856-27.328 22.272-36.416 0.64-0.448 1.024-1.088 1.6-1.728-45.248-49.408-90.24-98.56-136.064-148.544-14.272 89.792-28.288 178.56-42.368 267.008 7.68 3.328 15.104 5.952 22.016 9.536 32.32 16.768 52.416 41.728 51.392 79.744-0.896 30.656-14.592 54.080-43.008 66.944-27.52 12.416-56.128 13.824-84.864 4.16-25.536-8.448-42.752-25.408-49.088-51.904-5.184-21.888-2.24-43.072 7.424-63.232 5.632-11.648 14.080-20.736 25.536-26.816 3.008-1.536 6.144-2.816 9.344-4.288-34.112-68.8-68.032-137.024-102.464-206.336-25.6 69.44-50.88 137.664-76.096 205.888 16.896 8.192 20.928 10.496 26.496 18.688 16.704 24.384 21.12 51.2 12.928 79.36-7.68 26.432-25.024 44.288-52.096 51.2-26.816 6.72-53.376 4.928-78.848-5.76-23.68-9.984-38.4-27.776-42.112-53.568-3.264-22.4 1.792-43.392 11.52-63.36 7.488-15.36 18.56-27.712 34.56-34.432 7.744-3.264 16.064-4.992 24.96-7.68-18.944-87.296-38.016-175.040-57.28-264-40.128 49.792-79.36 98.56-118.080 146.56 4.608 5.376 9.664 9.792 12.992 15.296 12.096 20.096 15.296 41.92 9.408 64.704-7.296 28.16-22.528 50.304-50.048 62.080-18.816 8.064-38.784 9.408-58.624 6.208-30.208-4.864-51.456-21.312-61.248-51.008-6.272-19.008-7.104-38.656-3.904-58.112 4.992-30.080 20.864-52.032 50.496-62.528 15.040-5.248 30.656-6.784 46.4-5.632 5.44 0.384 7.040-1.408 8.576-6.144 23.552-76.352 47.36-152.64 70.976-228.992 1.344-4.352 3.072-5.696 7.616-5.696 195.008 0.128 389.952 0.128 584.96 0 4.8 0 6.592 1.408 8 5.952 24.064 77.504 48.32 155.008 72.448 232.512 1.344 4.096 3.008 4.8 7.232 4.608 11.072-0.448 22.4-1.152 33.28 0.448 25.152 3.712 45.184 15.936 56.704 39.424 10.688 22.016 13.504 45.568 10.112 69.632zM212.544-71.616c199.232 0 398.144 0 597.056 0 0 44.48 0 88.64 0 132.864-199.168 0-398.016 0-597.056 0 0-44.352 0-88.576 0-132.864z"  horiz-adv-x="1024" />

    
    <glyph glyph-name="04f" unicode="&#58891;" d="M675.319 496.831c0 89.577-72.87 162.447-162.423 162.447-89.577 0-162.447-72.87-162.447-162.447 0-89.554 72.869-162.422 162.447-162.423 89.554 0 162.423 72.87 162.423 162.423zM512.895 894.166c-281.804 0-511.083-229.279-511.083-511.083 0-122.923 44.254-241.709 124.634-334.472 97.206-112.252 238.072-176.611 386.45-176.611 281.804 0 511.083 229.279 511.083 511.083s-229.28 511.083-511.083 511.083zM811.621 33.804c-24.17 145.976-149.303 251.929-297.538 251.929-153.914 0-282.778-115.174-299.724-267.924l-48.389 5.371c15.463 139.243 111.121 251.295 237.919 293.211-61.078 37.031-102.115 103.943-102.115 180.44 0 116.41 94.711 211.122 211.121 211.122s211.098-94.711 211.098-211.121c0-76.089-40.588-142.694-101.118-179.846 121.573-39.394 214.872-143.034 236.755-275.244l-48.009-7.938z"  horiz-adv-x="1024" />

    
    <glyph glyph-name="zan2" unicode="&#59318;" d="M936.676677 323.556373c-18.59552-69.169359-111.428835-302.915008-115.377774-312.827775-0.431835-0.959861-0.847298-1.886977-1.343601-2.797719-18.307971-31.659047-52.012607-51.804876-88.771813-53.308113-1.390673-0.255827-2.814092-0.415462-4.285606-0.415462L404.509359-45.792697c-11.864212 0-21.441335 9.641591-21.441335 21.441335 0 11.879562 9.577123 21.537526 21.441335 21.537526l318.535777 0c1.215688 0.207731 2.51017 0.367367 3.805676 0.367367 22.960944 0.048095 43.490513 11.464099 55.114249 30.602995 8.266267 20.818141 96.079242 242.588037 113.203248 306.560024 15.31787 57.208956-18.771529 116.209722-76.012208 131.574664-8.010441 2.142803-16.868179 3.149736-27.836999 3.149736l-128.968303 0.511653c-7.099698 0-13.638625 3.518127-17.668405 9.305947-3.997034 5.835915-4.877077 13.223163-2.318812 19.85828 12.551874 32.95353 20.018939 110.389156 20.018939 207.17141 0 35.591613-28.876678 64.516386-64.420195 64.516386-35.591613 0-64.516386-28.924773-64.516386-64.516386l0-21.441335c0-142.255934-115.617228-257.873162-257.873162-257.873162-11.864212 0-21.441335 9.561773-21.441335 21.521153 0 11.799744 9.577123 21.457708 21.441335 21.457708 118.543883 0 214.894302 96.398514 214.894302 214.894302l0 21.441335c0 59.303664 48.2714 107.495246 107.495246 107.495246s107.399055-48.191582 107.399055-107.495246c0-50.957579-2.046612-136.499837-14.550391-193.452967l100.636025-0.415462c14.693654 0 27.037796-1.471514 38.822191-4.621251C910.438083 486.30913 958.166107 403.677155 936.676677 323.556373L936.676677 323.556373zM275.572778-45.79372 168.173722-45.79372c-47.424102 0-85.957721 38.518269-85.957721 85.957721l0 343.830883c0 47.376007 38.533618 85.957721 85.957721 85.957721l107.399055 0c11.879562 0 21.537526-9.657964 21.537526-21.457708l0-472.847282C297.110303-36.152129 287.452339-45.79372 275.572778-45.79372L275.572778-45.79372zM254.131443 426.973744l-85.957721 0c-23.712051 0-42.97886-19.266809-42.97886-42.97886l0-343.830883c0-23.728424 19.266809-42.97886 42.97886-42.97886l85.957721 0L254.131443 426.973744 254.131443 426.973744z"  horiz-adv-x="1024" />

    
    <glyph glyph-name="youshuimian" unicode="&#58954;" d="M635.882496-38.139904C406.065152-38.139904 219.092992 151.246848 219.092992 384.021504 219.092992 616.797184 406.065152 806.166528 635.882496 806.166528 688.43008 806.166528 739.864576 796.263424 788.757504 776.735744 798.143488 772.975616 804.473856 763.956224 804.888576 753.72544 805.285888 743.494656 799.68768 733.98784 790.617088 729.486336 659.37408 664.307712 577.837056 531.930112 577.837056 384.021504 577.837056 236.122112 659.37408 103.744512 790.617088 38.540288 799.705088 34.030592 805.285888 24.522752 804.888576 14.292992 804.473856 4.061184 798.143488-4.957184 788.757504-8.710144 739.864576-28.246016 688.43008-38.139904 635.882496-38.139904Z"  horiz-adv-x="1024" />

    
    <glyph glyph-name="iosmoon" unicode="&#59389;" d="M686.2 266c-3.6-0.2-7-0.2-10.6-0.2-58.2 0-113 22.6-154.2 63.8-41.2 41.2-63.8 96-63.8 154.2 0 33.2 7.4 65.2 21.2 94.2 6.2 12.8 13.6 25 22.2 36.4-15.2-1.6-29.8-4.8-44-9.2-93.6-29.6-161.4-117-161.4-220.4 0-127.6 103.4-231 231-231 70.6 0 133.6 31.6 176 81.4 9.6 11.4 18.4 23.8 25.6 37C714.6 268.8 700.6 266.6 686.2 266z"  horiz-adv-x="1024" />

    
    <glyph glyph-name="wifi" unicode="&#59731;" d="M512.2 704 512.2 704c-159.8 0-311.4-59.8-427.8-168.2L64 516.8l19.8-19.6 64.6-64 18.6-18.4 19.2 17.6c89 81.8 204.6 127 325.6 127 121 0 236.8-45.2 325.6-127l19.2-17.6 18.6 18.4 64.6 64 19.8 19.6-20.4 19C823.2 644.2 671.4 704 512.2 704zM794.8 383.2c-77.6 70.2-177.8 108.8-282.2 108.8l-0.2 0-0.6 0-17 0-0.2-0.4c-98.4-4-192-42.2-265.2-108.4l-21-19 20.2-20 65.4-64.8 18.2-18 19.2 16.8c50.6 44.4 114.8 69 180.6 69 66.2 0 130.4-24.6 181-69l19.2-16.8 18.2 18 65.4 64.8 20.2 20L794.8 383.2zM512.4 64l19.2 19 105.6 104.4 21.2 21-23.2 19c-30.8 22.8-64.8 40-123 40-58 0-89.8-18.8-123-40l-23-19 21.2-21 105.6-104.4L512.4 64z"  horiz-adv-x="1024" />

    
    <glyph glyph-name="wechat" unicode="&#58883;" d="M171.008-68.398545c-43.938909 0-70.306909 11.729455-76.288 33.931636-2.746182 10.216727-2.746182 30.045091 28.16 48.011636 24.855273 14.475636 47.569455 36.189091 67.677091 64.651636-117.946182 86.481455-185.134545 212.689455-185.134545 349.556364 0 249.693091 227.188364 452.864 506.414545 452.864 279.435636 0 506.740364-203.147636 506.740364-452.864 0-249.739636-227.328-452.933818-506.717091-452.933818-49.664 0-99.281455 6.702545-147.618909 19.921455C296.471273-51.688727 220.695273-68.398545 171.008-68.398545zM155.368727-21.108364c4.375273-0.465455 9.588364-0.744727 15.639273-0.744727 44.637091 0 114.082909 15.965091 175.104 60.765091l9.285818 6.842182 11.077818-3.281455c47.522909-14.033455 96.418909-21.131636 145.384727-21.131636 253.742545 0 460.171636 182.295273 460.171636 406.388364 0 224.046545-206.452364 406.318545-460.194909 406.318545-253.579636 0-459.869091-182.272-459.869091-406.318545 0-128.186182 66.816-246.295273 183.319273-324.049455l18.571636-12.404364-11.613091-19.060364C217.530182 31.604364 188.322909 0.279273 155.368727-21.108364z"  horiz-adv-x="1024" />

    
    <glyph glyph-name="share_link" unicode="&#58894;" d="M735.877 831.758c-59.811 0-116.028-23.288-158.304-65.574l-167.91-167.907c-42.293-42.251-65.572-98.497-65.572-158.274 0-76.547 38.6-146.988 103.27-188.484 9.802-6.279 21.22-7.991 31.759-5.625 10.442 2.297 20.002 8.573 26.236 18.313 6.259 9.776 7.982 21.126 5.66 31.62-2.298 10.493-8.585 20.133-18.34 26.374-40.469 25.96-64.63 69.994-64.63 117.802 0 37.383 14.549 72.5 40.982 98.909l167.917 167.907c26.415 26.443 61.561 40.984 98.933 40.984 77.148 0 139.925-62.76 139.925-139.891 0-37.381-14.56-72.5-40.982-98.94l-79.651-79.668c-8.393-8.402-12.483-19.445-12.295-30.456 0.19-10.493 4.287-20.884 12.295-28.91 8.197-8.196 18.939-12.278 29.683-12.278 10.752 0 21.495 4.082 29.674 12.278l79.651 79.668c42.294 42.253 65.58 98.496 65.58 158.306-0.001 123.429-100.433 223.846-223.88 223.846zM576.627 516.483c-9.799 6.309-21.22 8.024-31.755 5.656-10.436-2.295-20.003-8.607-26.238-18.313-6.247-9.774-7.981-21.125-5.65-31.619 2.289-10.495 8.574-20.132 18.33-26.373 40.478-25.962 64.638-69.995 64.638-117.805 0-37.38-14.558-72.498-40.984-98.94l-167.915-167.909c-26.417-26.407-61.559-40.982-98.934-40.982-77.147 0-139.923 62.795-139.923 139.922 0 37.383 14.549 72.501 40.982 98.941l79.643 79.668c8.393 8.368 12.49 19.446 12.301 30.454-0.188 10.459-4.295 20.886-12.301 28.91-8.198 8.198-18.94 12.278-29.676 12.278-10.76 0-21.493-4.080-29.682-12.278l-79.65-79.667c-42.295-42.251-65.572-98.495-65.572-158.308 0-123.425 100.433-223.877 223.878-223.877 59.811 0 116.021 23.285 158.297 65.606l167.909 167.909c42.295 42.251 65.581 98.497 65.581 158.271 0.001 76.549-38.606 146.991-103.279 188.456z"  horiz-adv-x="1024" />

    
    <glyph glyph-name="iconset0248" unicode="&#59027;" d="M938.666667 469.333333l0 85.333333c0 46.933333-38.4 85.333333-85.333333 85.333333L128 640c-46.933333 0-85.333333-38.4-85.333333-85.333333l0-341.333333c0-46.933333 38.4-85.333333 85.333333-85.333333l725.333333 0c46.933333 0 85.333333 38.4 85.333333 85.333333l0 85.333333c23.466667 0 42.666667 19.2 42.666667 42.666667l0 85.333333C981.333333 450.133333 962.133333 469.333333 938.666667 469.333333zM896 426.666667l0-85.333333 0-128c0-23.466667-19.2-42.666667-42.666667-42.666667L128 170.666667c-23.466667 0-42.666667 19.2-42.666667 42.666667L85.333333 554.666667c0 23.466667 19.2 42.666667 42.666667 42.666667l725.333333 0c23.466667 0 42.666667-19.2 42.666667-42.666667L896 426.666667z"  horiz-adv-x="1024" />

    
    <glyph glyph-name="iconset0249" unicode="&#59028;" d="M128 213.333333l213.333333 0L341.333333 554.666667 128 554.666667 128 213.333333zM938.666667 469.333333l0 85.333333c0 46.933333-38.4 85.333333-85.333333 85.333333L128 640c-46.933333 0-85.333333-38.4-85.333333-85.333333l0-341.333333c0-46.933333 38.4-85.333333 85.333333-85.333333l725.333333 0c46.933333 0 85.333333 38.4 85.333333 85.333333l0 85.333333c23.466667 0 42.666667 19.2 42.666667 42.666667l0 85.333333C981.333333 450.133333 962.133333 469.333333 938.666667 469.333333zM896 213.333333c0-23.466667-19.2-42.666667-42.666667-42.666667L128 170.666667c-23.466667 0-42.666667 19.2-42.666667 42.666667L85.333333 554.666667c0 23.466667 19.2 42.666667 42.666667 42.666667l725.333333 0c23.466667 0 42.666667-19.2 42.666667-42.666667L896 213.333333z"  horiz-adv-x="1024" />

    
    <glyph glyph-name="iconset0250" unicode="&#59029;" d="M938.666667 469.333333l0 85.333333c0 46.933333-38.4 85.333333-85.333333 85.333333L128 640c-46.933333 0-85.333333-38.4-85.333333-85.333333l0-341.333333c0-46.933333 38.4-85.333333 85.333333-85.333333l725.333333 0c46.933333 0 85.333333 38.4 85.333333 85.333333l0 85.333333c23.466667 0 42.666667 19.2 42.666667 42.666667l0 85.333333C981.333333 450.133333 962.133333 469.333333 938.666667 469.333333zM896 213.333333c0-23.466667-19.2-42.666667-42.666667-42.666667L128 170.666667c-23.466667 0-42.666667 19.2-42.666667 42.666667L85.333333 554.666667c0 23.466667 19.2 42.666667 42.666667 42.666667l725.333333 0c23.466667 0 42.666667-19.2 42.666667-42.666667L896 213.333333zM128 213.333333l384 0L512 554.666667 128 554.666667 128 213.333333z"  horiz-adv-x="1024" />

    
    <glyph glyph-name="iconset0252" unicode="&#59031;" d="M128 213.333333l725.333333 0L853.333333 554.666667 128 554.666667 128 213.333333zM938.666667 469.333333l0 85.333333c0 46.933333-38.4 85.333333-85.333333 85.333333L128 640c-46.933333 0-85.333333-38.4-85.333333-85.333333l0-341.333333c0-46.933333 38.4-85.333333 85.333333-85.333333l725.333333 0c46.933333 0 85.333333 38.4 85.333333 85.333333l0 85.333333c23.466667 0 42.666667 19.2 42.666667 42.666667l0 85.333333C981.333333 450.133333 962.133333 469.333333 938.666667 469.333333zM896 426.666667l0-85.333333 0-128c0-23.466667-19.2-42.666667-42.666667-42.666667L128 170.666667c-23.466667 0-42.666667 19.2-42.666667 42.666667L85.333333 554.666667c0 23.466667 19.2 42.666667 42.666667 42.666667l725.333333 0c23.466667 0 42.666667-19.2 42.666667-42.666667L896 426.666667z"  horiz-adv-x="1024" />

    
    <glyph glyph-name="zhaopianphotos11" unicode="&#58899;" d="M995.555556 640m-85.333333 0a1.5 1.5 0 1 0 170.666667 0 1.5 1.5 0 1 0-170.666667 0ZM1243.591111-128C1247.971556-128 1251.555556-124.302222 1251.555556-119.751111L1251.555556 887.751111C1251.555556 892.302222 1247.971556 896 1243.591111 896L8.021333 896C3.584 896 0 892.302222 0 887.751111l0-1007.502222C0-124.302222 3.584-128 8.021333-128L1243.591111-128zM56.888889 839.111111l1137.777778 0 0-910.222222L56.888889-71.111111 56.888889 839.111111zM848.156444 454.257778c-4.892444 7.68-14.734222 9.500444-22.072889 4.323556l-157.184-110.535111c-3.640889-2.56-8.590222-1.536-10.865778 2.389333L472.803556 670.378667C468.366222 678.115556 461.255111 678.172444 457.102222 670.208l-18.318222-35.271111L113.664 7.964444c-4.152889-8.021333-0.341333-14.449778 8.476444-14.449778l1004.430222 0c8.533333 0 12.003556 6.144 7.168 13.710222L848.156444 454.257778z"  horiz-adv-x="1252" />

    
    <glyph glyph-name="20" unicode="&#58898;" d="M428.8 185.6c-6.4 0-19.2 6.4-25.6 6.4L236.8 358.4c-12.8 12.8-12.8 32 0 44.8s32 12.8 44.8 0l147.2-147.2L742.4 576c12.8 12.8 32 12.8 44.8 0s12.8-32 0-44.8L448 192C448 185.6 435.2 185.6 428.8 185.6zM915.2-128l-262.4 0c-19.2 0-32 12.8-32 32S633.6-64 646.4-64l262.4 0c25.6 0 44.8 19.2 44.8 44.8l0 262.4c0 19.2 12.8 32 32 32S1024 262.4 1024 249.6l0-262.4C1024-76.8 972.8-128 915.2-128zM992 486.4c-19.2 0-32 12.8-32 32L960 787.2C960 812.8 940.8 832 915.2 832l-262.4 0C633.6 832 614.4 844.8 614.4 864S633.6 896 646.4 896l262.4 0C972.8 896 1024 844.8 1024 787.2l0-262.4C1024 505.6 1011.2 486.4 992 486.4zM32 486.4C12.8 486.4 0 505.6 0 518.4L0 787.2C0 844.8 51.2 896 108.8 896l262.4 0c19.2 0 32-12.8 32-32S390.4 832 377.6 832L108.8 832C83.2 832 64 812.8 64 787.2l0-262.4C64 505.6 51.2 486.4 32 486.4zM377.6-128 108.8-128C51.2-128 0-76.8 0-19.2l0 262.4c0 19.2 12.8 32 32 32S64 262.4 64 249.6l0-262.4C64-44.8 83.2-64 108.8-64l262.4 0c19.2 0 32-12.8 32-32S390.4-128 377.6-128z"  horiz-adv-x="1024" />

    
    <glyph glyph-name="wodeqiabao0101" unicode="&#58909;" d="M816.781566 574.238713l-105.7169 0 0.010239 131.119672c0 43.781643-28.29015 72.051315-72.082031 72.051315-10.085341 0-14.262822 0-24.348163-4.914684l-406.393169-106.679359c-54.317497-14.836202-98.498458-70.013769-98.498458-123.000205l0-472.403518c0-53.744117 43.730448-97.474565 97.474565-97.474565l609.553917 0c53.754356 0 97.464326 43.730448 97.464326 97.474565l0 406.352213C914.245892 530.508265 870.535922 574.238713 816.781566 574.238713zM668.501455 574.238713l-461.273806 0c-14.56999 0-29.04783-4.812295-44.385739-9.931757l-8.426635-2.784988 3.276456 8.221857c11.262817 28.167282 33.215072 48.09223 58.843101 53.303843l406.690098 106.76127 15.552927 0.051195c2.744032 0.624574 5.344719 0.931742 7.720149 0.931742 16.238935 0 22.00345-13.70992 22.00345-25.433489L668.501455 574.238713zM736.314879 216.224464c0-11.754286-9.532439-21.307203-21.307203-21.307203s-21.307203 9.552917-21.307203 21.307203l0 137.641868c0 11.764525 9.532439 21.307203 21.307203 21.307203s21.307203-9.542678 21.307203-21.307203L736.314879 216.224464z"  horiz-adv-x="1024" />

    
    <glyph glyph-name="shuidianfeiyongshezhi" unicode="&#58978;" d="M273.081681 588.703765 599.250151 888.661355C609.215747 897.978503 625.426903 897.978503 635.426627 888.661355L888.218283 652.797559C892.996309 648.360821 895.69248 642.251775 895.69248 635.937956 895.69248 629.55588 892.996309 623.515091 888.218283 619.010095L853.270443 588.703765C820.882258 587.099713 814.943855 586.007594 785.012941 588.703765L833.885312 635.937956 617.30426 838.014288 341.339182 588.703765C303.558656 588.260091 303.797556 586.826684 273.081681 588.703765ZM170.695428 588.703765 360.417153 884.12223C367.481805 895.452976 383.044516 899.377783 395.296737 892.825062L546.111687 827.605019C516.931605 799.926603 529.866401 830.471834 477.854185 793.476269L391.883862 839.584211 238.95293 588.703765C193.322791 587.338614 197.998429 589.898271 170.695428 588.703765ZM895.96551-127.761099 128.03449-127.761099C57.456233-127.761099 0.051676-74.17896 0.051676-8.310471L0.051676 489.866903C0.051676 555.701263 65.988422 588.703765 136.566678 588.703765L887.399193 588.703765C957.97745 588.703765 1023.948324 555.701263 1023.948324 489.866903L1023.948324-8.310471C1023.948324-74.17896 966.509638-127.761099 895.96551-127.761099L895.96551-127.761099 895.96551-127.761099ZM142.266179 520.889937C101.482322 520.889937 68.309176 508.262299 68.309176 471.608021L68.309176-10.665355C68.309176-47.353762 101.482322-59.947271 142.266179-59.947271L881.699692-59.947271C922.483549-59.947271 955.656695-47.353762 955.656695-10.665355L955.656695 471.608021C955.656695 508.262299 922.483549 520.889937 881.699692 520.889937L142.266179 520.889937 142.266179 520.889937 142.266179 520.889937ZM734.058716 145.303036C668.190227 145.303036 614.608089 198.953432 614.608089 264.890178 614.608089 330.826924 668.190227 384.47732 734.058716 384.47732 799.893077 384.47732 853.509344 330.826924 853.509344 264.890178 853.509344 198.953432 799.893077 145.303036 734.058716 145.303036L734.058716 145.303036 734.058716 145.303036ZM734.024587 324.171818C701.056214 324.171818 674.196887 297.34662 674.196887 264.378247 674.196887 231.444002 701.056214 204.652933 734.024587 204.652933 766.992961 204.652933 793.852287 231.444002 793.852287 264.378247 793.852287 297.380748 766.992961 324.171818 734.024587 324.171818L734.024587 324.171818 734.024587 324.171818Z"  horiz-adv-x="1024" />

    
    <glyph glyph-name="signal" unicode="&#60050;" d="M128 0 256 0 256 128 128 128M341.333333 0 469.333333 0 469.333333 298.666667 341.333333 298.666667M554.666667 0 682.666667 0 682.666667 512 554.666667 512M768 0 896 0 896 768 768 768 768 0Z"  horiz-adv-x="1024" />

    
    <glyph glyph-name="sim" unicode="&#60056;" d="M844.8 745.386667C844.8 792.32 806.826667 830.72 759.893333 830.72L418.56 830.72 162.56 574.72 162.56 62.72C162.56 15.786667 200.96-22.613333 247.893333-22.613333L760.32-22.613333C807.253333-22.613333 845.226667 15.786667 845.226667 62.72L844.8 745.386667M375.893333 105.386667 290.56 105.386667 290.56 190.72 375.893333 190.72 375.893333 105.386667M717.226667 105.386667 631.893333 105.386667 631.893333 190.72 717.226667 190.72 717.226667 105.386667M375.893333 276.053333 290.56 276.053333 290.56 446.72 375.893333 446.72 375.893333 276.053333M546.56 105.386667 461.226667 105.386667 461.226667 276.053333 546.56 276.053333 546.56 105.386667M546.56 361.386667 461.226667 361.386667 461.226667 446.72 546.56 446.72 546.56 361.386667M717.226667 276.053333 631.893333 276.053333 631.893333 446.72 717.226667 446.72 717.226667 276.053333Z"  horiz-adv-x="1024" />

    
    <glyph glyph-name="zhinanzhen" unicode="&#58927;" d="M512 432.818869c-26.850531 0-48.818869-21.968337-48.818869-48.818869s21.968337-48.818869 48.818869-48.818869c27.072589 0 48.818869 21.968337 48.818869 48.818869S539.072589 432.818869 512 432.818869zM512 827.808922c-245.204631 0-443.808922-198.60429-443.808922-443.808922 0-244.982574 198.60429-443.808922 443.808922-443.808922s443.808922 198.826348 443.808922 443.808922C955.808922 629.204631 757.203608 827.808922 512 827.808922zM609.193623 286.806377l-363.479385-169.091116 169.091116 363.479385 363.479385 169.091116L609.193623 286.806377z"  horiz-adv-x="1024" />

    
    <glyph glyph-name="wodianji" unicode="&#58895;" d="M969.656596-128 54.343404-128C67.685467 56.130728 189.772736 209.712957 356.592312 269.860475 255.784278 324.952489 187.349195 431.904457 187.349195 554.903953c0 179.319893 145.330912 324.650805 324.649798 324.650805 179.319893 0 324.650805-145.330912 324.650805-324.650805 0-122.999496-68.434076-229.951464-169.24211-285.043477C834.228271 209.712957 956.314533 56.130728 969.656596-128L969.656596-128z"  horiz-adv-x="1024" />

    
    <glyph glyph-name="zan" unicode="&#58956;" d="M128.53084 496.403023c0 41.382503 33.624818 74.93569 74.934666 74.93569 41.382503 0 74.93569-33.571606 74.93569-74.93569l0-487.077378c0-41.383526-33.624818-74.93569-74.93569-74.93569-41.381479 0-74.934666 33.571606-74.934666 74.93569L128.53084 496.403023zM390.802172 665.006022l-0.420579 0c0.275269-3.083222 0.420579-6.210445 0.420579-9.366322 0-47.164183-31.686676-86.926792-74.93569-99.157347l0-41.345664c0-0.01842 0-0.026606 0-0.045025l0-505.766019c0-41.364083 33.589003-74.93569 75.008344-74.93569l274.456862 0c82.71077 0 161.140027 66.145489 175.153182 147.729599l52.286854 304.560484c17.507746 102.038978-52.084239 184.65765-155.449421 184.65765L555.912627 571.337689c13.483082 10.236132 22.228257 26.41665 22.228257 44.620243L578.140884 739.794355c0 51.948139-41.932018 93.815689-93.669356 93.815689-51.626821 0-93.668333-42.004673-93.668333-93.815689L390.803195 665.006022z"  horiz-adv-x="1024" />

    
    <glyph glyph-name="shezhi" unicode="&#58984;" d="M635.635-126.928c-39.368 0-72.301 23.406-90.471 64.289-8.202 18.422-17.35 24.29-23.533 27.066-10.852 4.984-18.864 3.596-29.274-4.353-8.391-6.372-14.006-13.438-17.097-21.577-18.612-47.949-67.885-72.932-118.925-63.216-48.706 9.148-87.506 26.182-118.673 51.986-22.46 18.675-35.33 39.873-39.368 64.92-3.47 21.64 1.956 39.936 7.129 53.437 4.227 11.167 7.445 20.378 7.066 28.895-0.442 8.328-6.688 15.709-14.321 16.719-14.7 1.956-29.968-1.451-45.046-4.921-42.333-9.653-79.935 4.227-105.55 38.422C20.507 160.763 5.176 201.519 2.084 245.871c-3.47 48.643 17.791 85.361 59.873 103.215 15.015 6.372 25.299 15.583 31.356 28.075 5.363 11.041 2.208 16.277-1.199 20.252-11.861 14.258-17.602 17.728-20 18.612C12.179 437.161-7.127 499.62 4.671 550.281c7.382 31.924 18.675 68.831 45.993 100.376 27.192 31.293 60.63 42.649 96.97 32.239l6.814-1.956c11.23-3.281 20.883-6.057 29.463-6.057 29.968 1.893 31.103 18.548 31.608 25.678l0.757 12.113c0.315 2.587-0.442 21.514-2.713 30.599-9.779 38.8 3.028 75.077 36.151 102.017 32.807 26.75 72.743 42.144 125.739 48.453 43.532 5.236 77.159-15.142 95.96-55.267 6.183-12.997 11.104-20.694 17.034-26.435 14.826-14.321 44.605-5.93 53.816 13.186 5.552 11.482 12.744 22.965 21.324 34.195 20.567 26.687 51.166 39.053 85.74 34.069 32.176-4.795 73.879-14.132 109.84-44.037 20.504-17.034 40.441-37.286 46.939-69.336 4.669-23.028-2.082-42.333-7.066-56.403-3.218-9.274-4.416-17.35-3.659-25.425 1.199-13.249 14.069-25.804 27.003-26.245 11.482 0.946 22.712 1.956 32.807 6.183 13.88 5.741 27.76 8.643 41.198 8.643 21.955 0 53.564-7.634 79.746-44.1 24.479-34.132 38.737-74.573 43.721-123.594 4.353-42.649-17.665-78.106-60.314-97.159-9.148-4.101-16.277-9.085-22.145-15.457-7.571-8.076-10.599-18.675-8.58-29.274 1.956-10.41 8.643-18.99 18.233-23.596 17.35-8.139 37.034-19.306 51.923-39.747 17.539-23.848 23.596-52.239 17.981-84.225-4.921-28.643-15.079-70.85-46.056-106.244-29.274-33.438-61.134-40.504-82.711-40.504-9.148 0-18.612 1.262-28.012 3.659-15.773 4.101-31.987 8.012-48.264 4.858-6.877-1.262-15.646-11.167-16.088-18.296-0.82-11.924 0.252-20.504 3.407-27.633 20.504-46.245 4.795-99.178-38.169-128.704-33.501-22.965-71.166-37.412-112.048-42.901C644.468-126.676 639.989-126.928 635.635-126.928zM510.086 40.198c13.943 0 27.949-3.091 41.639-9.274 26.372-11.987 46.561-33.501 60.062-63.973 9.337-20.946 20.252-20.946 23.848-20.946l3.659 0.252c29.842 3.975 56.15 14.069 80.503 30.788 10.599 7.255 20.315 21.892 12.744 39.053-10.599 23.974-10.536 46.876-9.527 62.018 2.776 40.63 36.151 77.979 75.897 85.172 28.958 5.237 57.349-0.315 79.43-5.994 10.347-2.587 19.242-6.751 37.665 14.258 14.574 16.593 23.533 38.422 29.085 70.661 2.713 15.52-1.009 23.217-4.984 28.643-5.047 6.94-13.375 11.798-24.29 16.971-30.851 14.574-52.239 42.207-58.674 75.771-6.435 33.69 3.344 67.443 26.75 92.553 12.492 13.501 27.444 24.164 45.74 32.428 19.179 8.517 18.233 17.413 17.665 23.28-3.659 36.024-13.628 64.92-30.473 88.389-9.842 13.691-17.539 13.691-20.441 13.691-3.785 0-8.265-1.009-13.186-3.091-18.801-7.823-38.359-11.798-57.917-11.798-55.519 2.019-98.042 42.712-102.585 92.742-1.64 18.548 0.82 36.908 7.571 56.024 2.461 7.129 5.047 14.448 4.353 17.791-1.956 9.527-9.274 17.097-22.082 27.76-17.476 14.511-39.558 22.839-74.005 27.949-8.643 0.505-12.744-0.757-17.034-6.309-5.615-7.318-10.158-14.511-13.564-21.514-18.17-37.728-57.349-62.144-99.745-62.144-26.624 0-51.671 10.031-70.535 28.264-15.773 15.331-25.11 32.744-32.239 47.759-6.624 14.195-13.186 14.195-17.476 14.195-42.523-4.858-70.535-15.205-92.175-32.807-14.132-11.545-13.564-19.432-11.419-27.823 3.407-13.754 5.11-42.333 5.11-42.333l0.126-2.145-1.262-21.009c-3.722-52.996-41.892-89.651-97.348-93.31l-7.066-0.189c-18.927 0-35.33 4.732-49.778 8.959l-6.372 1.83c-7.255 0.82-12.555 0.946-21.955-9.842-16.845-19.432-24.416-44.731-30.094-69.147-3.596-15.457-1.073-41.261 20.694-48.958 22.334-7.886 39.368-25.804 51.734-40.567 23.596-28.264 27.507-64.352 10.788-98.925-13.943-28.706-36.971-49.967-68.453-63.342-9.464-4.038-17.161-9.148-15.583-30.977 2.082-30.157 12.492-57.854 30.977-82.459 11.987-15.962 20.252-13.628 30.914-11.167 21.324 4.921 45.551 9.59 71.039 6.183 42.712-5.615 75.33-41.64 77.475-85.613 1.009-22.523-5.236-41.072-11.735-58.169-2.902-7.697-3.848-12.303-3.218-15.962 0.82-5.3 3.091-11.419 13.943-20.441 21.577-17.918 48.832-29.463 85.613-36.403 2.965-0.568 5.93-0.82 8.896-0.82 21.135 0 26.624 14.006 28.391 18.612 7.949 20.757 21.829 38.8 41.072 53.437C467.563 32.816 488.32 40.198 510.086 40.198zM508.193 139.501c-133.373 0-242.266 110.092-242.708 245.358-0.442 135.833 106.244 243.528 242.96 245.231l0 0c136.212 0 245.421-109.524 246.493-244.159 1.136-134.571-108.452-245.105-244.222-246.43L508.193 139.501zM511.537 557.158c-98.358-1.199-173.435-76.781-173.119-172.047 0.315-95.203 76.465-172.678 169.776-172.678l1.767 0c95.645 0.946 172.804 78.484 172.047 172.867C681.25 480.062 604.784 557.158 511.537 557.158z"  horiz-adv-x="1024" />

    
    <glyph glyph-name="yaoyiyao" unicode="&#59050;" d="M737.860267 667.0848l-6.0928-2.048-6.126933-2.030933-6.0928-2.048-4.078933-2.048-6.109867-2.030933-6.0928-2.048-4.096-2.048-2.030933-2.030933-6.0928-2.048-2.048-2.030933-2.030933-2.048L682.837333 640.512l-2.030933-2.048-2.030933-4.078933-2.030933-2.048-2.048-4.078933-2.030933-6.126933-2.048-4.078933 0-20.445867 2.048-6.126933 2.030933-6.109867 2.048-2.048 2.030933-4.078933 4.061867 0 0-4.096 4.078933-4.078933 2.030933-2.048 2.048-2.030933 6.0928-2.048 2.030933-2.030933 6.126933-2.048 24.4736 0 6.0928 2.048 4.061867 2.030933 6.126933 2.048 6.0928 2.030933 4.078933 2.048 6.109867 2.048 6.109867 2.030933 6.109867 2.048 4.061867 2.048 6.126933 2.030933 6.0928 2.048 4.078933 2.048 6.109867 2.030933 6.0928 2.048 4.078933 2.030933 12.2368 4.096 4.078933 2.030933 6.0928 2.048 2.048 2.048 4.078933 2.030933 4.061867 4.096 2.030933 2.030933 2.030933 2.048 2.048 2.030933 2.030933 4.096 2.048 2.030933 4.061867 12.270933 0 20.4288-2.030933 8.174933-2.030933 4.078933-2.048 4.096-4.078933 4.078933-2.030933 4.078933-2.030933 2.048-2.030933 2.030933-6.109867 2.048-2.048 2.048-4.061867 2.030933-4.061867 2.048-10.205867 2.048-2.030933 0-16.315733-2.048-6.109867-2.048-4.061867-2.030933-6.126933-2.048-6.0928-2.048-4.078933-2.030933-6.109867-2.048-6.0928-2.048-4.078933-2.030933-6.109867-2.048-6.109867-2.030933L737.860267 667.0848zM894.839467 423.850667l-6.126933-2.030933-6.0928-2.048-4.078933-2.030933-6.109867-2.048-6.0928-2.048-4.096-2.030933-6.0928-2.048-6.109867-2.048-4.078933-2.030933-6.0928-2.048-6.126933-2.048-4.061867-2.030933-12.2368-4.096-6.109867-2.030933-4.078933-2.048L801.0752 389.12l-6.109867-2.048-4.078933-2.048-2.030933-2.030933-4.061867-4.096-2.048-2.030933-4.078933-4.078933-2.030933-2.048-2.030933-4.078933-2.030933-2.048-2.048-6.126933-2.030933-8.174933 0-16.349867 2.030933-6.126933 2.048-6.126933 2.030933-4.096 2.030933-2.030933 2.030933-2.048 8.174933-8.174933 2.030933-2.048 6.109867-2.048 2.030933-2.030933 6.109867-2.048 10.205867-2.048 10.1888 0 6.109867 2.048 4.061867 2.048 6.126933 2.030933 6.0928 2.048 4.078933 2.048 6.109867 2.030933 6.0928 2.048 4.096 2.048 6.0928 2.030933 6.109867 2.048 4.078933 2.030933 6.0928 2.048 6.126933 2.048 4.061867 2.030933 12.2368 4.096 6.109867 2.030933 4.078933 2.048 6.0928 2.048 6.109867 2.030933 4.078933 4.078933 4.061867 2.048 2.030933 2.048 2.048 4.078933 4.078933 4.078933 2.030933 4.078933 2.030933 4.096 2.030933 4.078933 0 26.5728-2.030933 4.078933-2.030933 6.126933-2.030933 4.096-8.174933 8.174933-4.061867 4.096L933.546667 419.771733l-4.078933 2.048-4.061867 2.030933-8.157867 2.048L898.901333 425.898667 894.839467 423.850667zM847.940267 556.714667 841.8304 554.666667l-6.109867-2.048-4.078933-2.030933-6.0928-2.048-6.126933-2.030933-4.061867-2.048-6.109867-2.048-6.109867-2.030933-4.061867-2.048-6.126933-2.048-6.0928-2.030933-6.126933-2.048-4.061867-2.048-6.109867-2.030933-6.109867-2.048-4.061867-2.048-6.109867-2.030933-6.109867-2.048-4.061867-2.030933-2.048-2.048-4.078933-2.048-2.030933-2.030933-4.061867-4.096-4.078933-4.078933-2.048-4.078933-2.030933-2.048-2.030933-4.078933-2.030933-8.174933 0-20.4288 2.030933-6.126933 2.030933-4.078933 2.030933-2.048 2.048-4.078933 2.048-2.048 2.030933-4.078933 2.030933-2.048 2.030933-2.030933 4.061867-2.048 2.048-2.030933 4.078933-2.048 4.061867-2.048 6.109867-2.030933 20.3776 0 6.109867 2.030933 4.078933 2.048 6.0928 2.048 6.126933 2.030933 4.061867 2.048 6.109867 2.030933 6.109867 2.048 4.061867 2.048 6.126933 2.030933 6.0928 2.048 6.109867 2.048 4.078933 2.030933 6.0928 2.048 6.126933 2.048 4.061867 2.030933 6.109867 2.048 6.109867 2.030933 4.061867 2.048 6.126933 2.048 4.061867 2.030933 4.061867 2.048 0 4.078933 4.078933 0 2.048 2.048 2.030933 2.048 2.030933 4.078933 2.030933 2.030933 2.030933 4.096 4.096 8.174933 0 24.541867-2.048 6.126933-2.048 4.078933-2.030933 4.078933-2.030933 4.096-2.030933 2.030933-2.030933 2.048-4.078933 4.078933-4.078933 2.048-2.030933 2.030933L878.523733 554.666667l-2.030933 2.048-10.1888 2.030933-10.205867 0L847.940267 556.714667zM1004.9024 258.304l-2.030933 6.126933-2.048 4.078933-2.030933 4.078933-2.048 4.096-2.030933 2.030933-4.061867 4.096-4.078933 2.030933-2.048 2.048-4.061867 2.048-4.061867 2.030933-8.174933 2.048-22.408533 0-4.078933-2.048-6.0928-2.030933-6.126933-2.048-4.061867-2.048-6.109867-2.030933-6.109867-2.048-4.061867-2.048-6.126933-2.030933-6.0928-2.048-6.109867-2.048-4.078933-2.030933-6.0928-2.048-6.126933-2.030933-4.061867-2.048-6.109867-2.048-6.109867-2.030933-4.061867-2.048-6.126933-2.048-6.0928-2.030933-2.030933-2.048-2.048-2.048-4.078933-2.030933-2.030933-2.048-2.030933-2.030933-2.030933-4.096-4.078933-4.078933-2.048-6.126933-2.030933-4.078933-2.030933-8.174933 0-16.349867 2.030933-4.078933 2.030933-6.126933 2.048-4.078933 4.078933-4.078933 2.030933-4.096 2.030933-2.030933 4.078933-2.048 2.030933-2.048 2.048-2.030933 2.030933-2.048 6.0928-2.048 6.126933-2.030933 20.360533 0 6.126933 2.030933 6.0928 2.048 6.109867 2.048 4.078933 2.030933 6.0928 2.048 6.126933 2.048 4.061867 2.030933 12.2368 4.096 4.061867 2.030933 6.126933 2.048 6.0928 2.030933 4.078933 2.048 6.109867 2.048 6.109867 2.030933 6.109867 2.048 4.061867 2.048 6.109867 2.030933 4.078933 2.048 6.0928 2.048 2.048 2.030933 2.030933 2.048 2.048 2.030933 4.061867 4.096 2.030933 2.030933 2.048 4.096 2.030933 2.030933 2.048 4.078933 2.030933 6.126933L1006.933333 241.954133l0 6.126933L1004.9024 258.304zM181.4016 673.211733l2.048-6.126933 2.030933-6.126933 2.048-4.078933 2.048-6.126933 2.030933-6.126933 2.048-4.078933 2.048-6.126933 2.030933-6.126933 2.048-4.078933 2.030933-6.126933 2.048-6.126933 2.030933-6.126933 2.048-4.078933 2.048-6.126933 2.030933-6.126933 2.048-4.078933 2.030933-6.126933 2.048-6.126933 2.048-4.096 2.030933-6.109867 2.048-4.096 2.030933 0 4.078933 2.048 6.109867 2.048 6.109867 2.030933 4.078933 2.048 6.109867 2.030933 12.2368 4.096 2.030933 2.030933 2.048 8.174933 2.048 8.174933 2.030933 2.048 2.048 2.048 2.030933 2.030933 2.048 2.048 4.078933 2.048 6.109867 2.030933 4.078933 2.048 6.109867 2.048 6.109867 2.030933 4.078933 2.048 6.109867 2.030933 6.109867 2.048 4.078933 2.048 6.109867 2.030933 6.109867 2.048 4.078933 2.048 6.109867 2.030933 12.2368 4.096 4.078933 2.030933 6.109867 2.048 6.109867 2.030933 4.078933 2.048 6.109867 2.048 6.109867 2.030933 4.078933 2.048 6.109867 2.048 6.109867 2.030933 4.078933 2.048 6.109867 2.030933 12.2368 4.096 4.078933 2.030933 12.2368 4.096 4.078933 2.030933 12.2368 4.096 4.078933 2.030933 6.109867 2.048 6.109867 2.030933 4.078933 2.048 6.109867 2.048 6.109867 2.030933 4.078933 2.048 6.109867 2.048 6.126933 2.030933 6.0928 2.048 4.078933 2.048 6.109867 2.030933 6.109867 2.048 4.078933 2.030933 6.0928 2.048 6.109867 2.048 4.078933 2.030933 6.0928 2.048 6.126933 2.048 4.061867 2.030933 12.2368 4.096 4.061867 2.030933 6.126933 2.048 6.0928 2.030933 6.126933 2.048 4.061867 2.048 6.109867 2.030933 6.109867 2.048 4.061867 2.048 6.109867 2.030933 6.109867 2.048 4.061867 2.048L650.24 738.6112l6.0928 2.048 16.315733 0 2.030933-2.048 4.078933-2.030933 4.061867-4.096 2.030933-4.078933 2.048-4.078933 2.030933-6.126933 2.048-6.126933 2.030933-4.078933 4.061867-12.270933 2.030933-4.078933 2.048-6.126933 2.048-2.048 6.0928 0 6.109867 2.048 4.078933 2.030933 6.0928 2.048 6.126933 2.048 4.061867 2.030933 6.109867 2.048 4.078933 2.030933 0 4.096-2.030933 6.126933-2.048 6.126933-2.048 4.078933L735.829333 730.453333l-2.030933 4.078933-4.061867 12.270933-2.048 4.078933-2.048 6.126933-2.030933 6.126933-2.030933 4.078933-4.061867 12.270933-2.048 6.126933-2.030933 4.078933-2.048 6.126933-2.030933 6.126933L707.293867 806.058667l-4.061867 12.270933-2.048 4.078933-2.048 6.126933-2.030933 6.126933-2.030933 4.078933-4.061867 12.270933-2.048 4.078933-2.030933 6.126933-2.048 6.126933L682.837333 871.458133l-2.030933 2.048-2.030933 4.078933-2.030933 2.048-2.048 2.048-4.078933 2.030933-4.061867 4.096-2.030933 2.030933-6.126933 2.048L652.270933 893.952 642.065067 896l-2.030933 0-12.2368-2.048-6.0928-2.030933-4.078933-2.048L611.498667 887.825067l-6.109867-2.048-4.078933-2.048-6.0928-2.030933-6.126933-2.048-6.0928-2.048-4.078933-2.030933-12.2368-4.096-4.078933-2.030933-6.0928-2.048-6.109867-2.030933-4.078933-2.048-6.0928-2.048-6.126933-2.030933-4.061867-2.048-6.109867-2.048-6.109867-2.030933-4.061867-2.048-6.126933-2.048L501.418667 846.9504l-6.109867-2.048-4.078933-2.030933-6.109867-2.048-6.109867-2.048-4.078933-2.030933-12.2368-4.096-4.078933-2.030933-6.109867-2.048-6.109867-2.030933-4.078933-2.048-6.109867-2.048L430.08 820.3776l-4.078933-2.048-6.109867-2.048L413.781333 814.250667l-6.109867-2.048-4.078933-2.048L397.482667 808.123733l-6.109867-2.048-4.078933-2.048-6.109867-2.030933-6.109867-2.048-4.078933-2.030933-12.2368-4.096-4.078933-2.030933-6.109867-2.048-6.109867-2.048-4.078933-2.030933-6.109867-2.048-6.109867-2.048-6.109867-2.030933-4.078933-2.048-6.109867-2.030933-6.109867-2.048-4.078933-2.048-6.109867-2.030933-6.109867-2.048-4.078933-2.048-6.109867-2.030933-6.109867-2.048-4.078933-2.030933-6.109867-2.048-6.109867-2.048-6.109867-2.030933-4.078933-2.048-6.109867-2.048-6.109867-2.030933-4.078933-2.048-6.109867-2.048L216.064 740.6592l-4.078933-2.048-6.109867-2.030933-2.030933-2.048-4.078933-2.048L197.717333 730.453333l-2.030933-2.048-4.078933-2.048-2.030933-2.030933-2.048-4.096-2.048-2.030933-2.030933-4.078933-2.048-2.048-2.030933-4.078933 0-4.096-2.048-4.078933 0-12.270933 2.048-10.222933L181.4016 673.211733zM375.057067 720.213333l2.048 6.126933 2.030933 4.096 6.109867 2.030933 4.078933 2.048 6.109867 2.048 6.109867 2.030933 4.078933 2.048 6.109867 2.030933 6.109867 2.048 4.078933 2.048 6.109867 2.030933 6.109867 2.048 6.109867 2.048 4.078933 2.030933 12.2368 4.096 4.078933 2.030933 6.109867 2.048 6.109867 2.030933 4.078933 2.048 6.109867 2.048 6.109867 2.030933 4.078933 2.048L503.466667 773.307733l6.109867-2.048 2.030933-4.078933 2.048-2.048 0-16.349867-2.048-2.030933-2.030933-2.048-4.078933-2.048L501.418667 740.6592l-6.109867-2.048-6.109867-2.030933-4.078933-2.048-6.109867-2.048L472.8832 730.453333 468.821333 728.405333l-6.109867-2.048-6.109867-2.030933-6.109867-2.048-4.078933-2.048-6.109867-2.030933-6.109867-2.048L430.08 714.103467l-6.109867-2.048-6.109867-2.048-4.078933-2.030933-12.2368-4.096-4.078933-2.030933-10.1888 0-6.109867 2.030933-2.048 2.048-2.030933 2.048-2.048 4.078933L375.04 720.213333zM970.24 98.8672l-2.030933 4.096-4.061867 12.270933-2.030933 4.078933-2.048 6.126933-2.030933 6.126933-2.048 4.078933-4.061867 12.270933-2.030933 4.078933-2.030933 6.126933-2.048 2.048-6.109867 0-6.109867-2.048-4.078933-2.048-6.0928-2.030933-12.2368-4.096-4.061867-2.030933-6.126933-2.048-6.0928-2.030933-4.078933-2.048-6.109867-2.048-10.205867-2.030933c-31.3344 0-59.972267 9.898667-75.400533 40.874667l-2.048 6.126933-2.030933 4.078933-2.048 4.096-4.061867 0-4.061867-2.048-6.126933-2.048-6.0928-2.030933-6.126933-2.048-4.061867-2.030933-12.2368-4.096-4.061867-2.030933-6.126933-2.048-6.0928-2.048-4.061867-2.030933-6.126933-2.048-6.0928-2.048-4.078933-2.030933-6.109867-2.048-6.109867-2.030933-4.078933-2.048-6.0928-2.048-6.126933-2.030933-6.0928-2.048-4.078933-2.048-6.109867-2.030933-6.0928-2.048-4.096-2.030933-6.0928-2.048-6.109867-2.048-4.078933-2.030933-6.0928-2.048-6.126933-2.048-4.061867-2.030933-12.2368-4.096-4.061867-2.030933-6.126933-2.048-6.0928-2.048-6.109867-2.030933-4.078933-2.048-6.0928-2.030933-6.126933-2.048-4.061867-2.048-6.109867-2.030933-6.109867-2.048-4.061867-2.048-6.126933-2.030933-6.0928-2.048-4.078933-2.048-6.109867-2.030933-6.0928-2.048-4.096-2.030933-6.0928-2.048-6.109867-2.048L503.466667 86.613333l-4.078933-2.048-6.109867-2.048-6.109867-2.030933-4.078933-2.048-6.109867-2.030933L466.773333 76.407467l-6.109867 2.030933-4.078933 2.048-2.030933 2.030933-4.078933 2.048-2.030933 6.126933-2.048 6.126933-2.048 4.078933-2.030933 6.126933-2.048 6.126933-2.030933 4.078933-2.048 6.126933-2.030933 6.126933-2.048 6.126933-2.048 4.078933-2.030933 6.126933-2.048 6.126933-2.030933 4.078933-4.078933 12.270933-2.030933 4.078933-2.048 6.126933-2.030933 6.126933-2.048 4.078933-2.048 6.126933-2.030933 6.126933-2.048 4.096-2.030933 6.109867-2.048 6.126933-2.048 4.096-2.030933 6.109867-2.048 6.126933-2.030933 6.126933-2.048 4.096-2.048 6.109867-2.030933 6.126933-2.048 4.096-2.048 6.126933-2.030933 6.109867-2.048 4.096-2.030933 6.126933-2.048 6.126933-2.030933 4.078933-4.078933 12.270933-2.030933 4.078933-2.048 6.126933-2.030933 6.126933-2.048 4.078933-2.048 6.126933-2.030933 6.126933-2.048 4.078933-2.030933 6.126933-4.078933 12.270933-2.030933 4.078933-6.109867 0-6.109867-2.048-4.078933-2.030933-12.2368-4.096-4.078933-2.030933-6.109867-2.048-2.030933-2.030933 0-4.096 2.030933-6.126933 2.048-4.078933 2.048-6.126933 2.030933-6.126933 2.048-4.078933 2.030933-6.126933 2.048-6.126933 2.048-4.078933 2.030933-6.126933 2.048-6.126933 2.030933-4.078933 4.078933-12.270933 2.030933-6.126933 2.048-4.078933 2.030933-6.126933 2.048-6.126933 2.048-4.078933 2.030933-6.126933 2.048-6.126933 2.030933-4.078933 4.078933-12.270933 2.030933-4.078933 2.048-6.126933 2.030933-6.126933 2.048-6.126933 2.048-4.078933 2.030933-6.126933 2.048-6.126933 2.030933-6.126933 2.048-6.126933 2.048-4.078933 0-4.078933 2.030933-2.048 2.048-8.174933 2.030933-6.109867 2.048-4.096 2.030933-6.126933 4.078933-12.270933 2.030933-4.078933 2.048-6.126933 2.048-4.078933 2.030933-8.174933 2.048-4.078933 2.030933-6.126933 2.048-6.126933 2.048-4.078933 2.030933-6.126933 2.048-6.126933 2.030933-4.078933 4.078933-12.270933 2.030933-4.078933 2.048-6.126933 2.030933-6.126933 2.048-4.078933 2.048-6.126933 2.030933-6.126933 2.048-6.126933 2.030933-4.078933 4.078933-12.270933 2.030933-4.078933 2.048-6.126933 2.030933-6.126933 2.048-4.078933 2.030933-6.126933 2.048-6.126933 2.048-4.078933 2.030933-6.126933 2.048-6.126933 2.048-4.078933 2.030933-6.126933 2.048-6.126933 2.030933-4.078933 4.078933-12.270933 2.030933-6.126933 2.048-4.078933 2.030933-6.126933 2.048-2.048 2.048-4.078933 4.078933 0 0-4.078933 2.030933-2.048 2.048-2.048 2.048-2.030933 8.157867-4.096 4.078933-2.030933L503.466667-128l18.3296 0 6.126933 2.048 4.061867 2.030933 12.2368 4.096 4.061867 2.030933 6.126933 2.048 6.0928 2.048 4.078933 2.030933 6.109867 2.048 6.0928 2.030933 4.096 2.048 6.0928 2.048 6.109867 2.030933 4.078933 2.048 6.0928 2.048 6.126933 2.030933 6.0928 2.048 4.078933 2.030933 12.2368 4.096 4.078933 2.030933 6.0928 2.048 6.109867 2.048 4.078933 2.030933 6.0928 2.048 6.126933 2.048 4.061867 2.030933 6.109867 2.048 6.109867 2.030933 4.061867 2.048 6.126933 2.048 6.0928 2.030933 6.126933 2.048 4.061867 2.048 6.109867 2.030933 6.109867 2.048 4.061867 2.048 6.126933 2.030933 6.0928 2.048 4.061867 2.030933 6.126933 2.048 6.0928 2.048 4.078933 2.030933 12.2368 4.096 4.078933 2.030933 6.0928 2.048 6.126933 2.030933 6.0928 2.048 4.078933 2.048 6.109867 2.030933 6.0928 2.048 4.078933 2.048 6.109867 2.030933 6.109867 2.048 4.078933 2.048 6.0928 2.030933 6.126933 2.048 4.061867 2.030933 12.2368 4.096 4.061867 2.030933 6.126933 2.048 6.0928 2.048 6.109867 2.030933 4.078933 2.048 6.0928 2.048 6.126933 2.030933 4.061867 2.048 6.109867 2.030933 6.109867 2.048 4.061867 2.048 6.126933 2.030933 6.0928 2.048 4.078933 2.048 6.109867 2.030933 6.0928 2.048 8.174933 4.078933 4.061867 2.048 2.048 2.030933 2.030933 2.048 4.078933 4.078933 2.030933 4.096 2.030933 2.030933 2.030933 2.048 2.048 6.126933 2.030933 8.174933 0 20.445867-2.030933 6.126933L970.24 98.8672zM701.866667-3.054933c-30.788267 0-55.739733 25.019733-55.739733 55.8592 0 10.376533 2.833067 20.087467 7.7312 28.416l0.426667 1.28 1.006933 1.024c0.580267 0.887467 1.194667 1.757867 1.809067 2.594133l1.245867 2.5088 4.096 4.096 0.8704 0.426667c10.001067 9.608533 23.569067 15.5136 38.536533 15.5136 30.7712 0 55.7056-25.0368 55.7056-55.876267S732.637867-3.054933 701.866667-3.054933zM423.970133-44.202667l-2.048 6.126933-2.048 4.078933-2.030933 6.126933-2.048 6.126933-2.030933 4.078933-4.078933 12.270933-2.030933 4.078933-2.048 6.126933-2.030933 6.126933-2.048 4.078933-2.048 6.126933-2.030933 6.126933-2.048 4.096L393.403733 37.546667l-4.078933 12.270933-2.030933 4.096-2.048 6.109867-2.048 6.126933-2.030933 4.096-2.048 6.126933-2.030933 6.109867-2.048 4.096-2.030933 6.126933-2.048 6.109867-2.048 4.096-2.030933 6.126933-2.048 6.126933-2.030933 4.078933L358.741333 131.584l-2.030933 4.078933-2.048 6.126933-2.030933 6.126933-2.048 4.078933-2.048 6.126933-2.030933 6.126933-2.048 6.126933-2.030933 4.078933-4.078933 12.270933-2.030933 4.078933-2.048 6.126933-2.030933 6.126933-2.048 4.078933L328.174933 213.333333l-2.030933 6.126933-2.048 4.078933-2.030933 6.126933-2.048 6.126933-2.048 4.078933-2.030933 6.126933-2.048 6.126933-2.030933 6.126933-2.048 4.078933-2.048 6.126933-2.030933 6.126933-2.048 4.078933-2.030933 6.126933-2.048 6.126933-2.048 4.078933-2.030933 6.126933-2.048 6.126933-2.030933 4.096-2.048 6.109867-2.048 6.126933-2.030933 6.126933-2.048 4.096-2.030933 6.109867-2.048 6.126933-2.048 4.096 0 6.109867 2.048 6.126933 2.048 2.048 2.030933 4.078933 2.048 2.048 4.078933 2.048 4.078933 2.030933 4.078933 2.048 6.109867 2.030933 6.109867 2.048 4.078933 2.048 6.109867 2.030933 6.109867 2.048 4.078933 2.048 6.109867 2.030933 6.109867 2.048 6.109867 2.030933 4.078933 2.048 6.109867 2.048 6.109867 2.030933 4.078933 2.048 6.109867 2.048 6.109867 2.030933 4.078933 2.048 6.109867 2.048 6.109867 2.030933 4.078933 2.048 6.109867 2.048 6.109867 2.030933 4.078933 2.048 6.109867 2.030933 6.109867 2.048 6.109867 2.048 4.078933 2.030933 12.2368 4.096 4.078933 2.030933 6.109867 2.048 6.109867 2.030933 4.078933 2.048 6.109867 2.048 6.109867 2.030933 4.078933 2.048 6.109867 2.048 2.030933 2.030933 4.078933 2.048 2.048 2.048 4.078933 2.030933 2.048 2.048 4.078933 4.078933 2.030933 2.048 2.030933 2.030933 4.061867 4.096 2.048 2.030933 2.048 4.096 2.030933 2.030933 2.030933 4.078933 2.030933 6.126933 2.030933 2.048 2.048 6.126933c9.489067 28.5184 3.6864 59.2896-10.683733 78.250667-17.902933 23.637333-49.288533 32.119467-83.080533 32.119467l-4.078933 0c-9.6256-3.208533-18.909867-6.997333-28.535467-10.222933l-4.078933-2.048-6.109867-2.030933-6.109867-2.048-4.078933-2.048-6.109867-2.030933-6.109867-2.048-4.078933-2.030933-12.2368-4.096-6.109867-2.030933-4.078933-2.048-6.109867-2.048-6.109867-2.030933-4.078933-2.048-6.109867-2.048-6.109867-2.030933-4.078933-2.048-6.109867-2.030933-6.109867-2.048-4.078933-2.048-6.109867-2.030933-12.2368-4.096-4.078933-2.030933-6.109867-2.048-6.109867-2.030933-4.078933-2.048-6.109867-2.048-6.109867-2.030933-4.078933-2.048-6.109867-2.048-6.109867-2.030933-4.078933-2.048-6.109867-2.048-6.109867-2.030933-4.078933-2.048-6.109867-2.048-6.109867-2.030933-2.030933-2.048-4.078933-2.030933-6.109867-2.048-2.048-2.048-4.078933-2.030933-4.078933-2.048-4.078933-2.048-2.030933-2.030933-4.078933-2.048-4.078933-2.030933-4.078933-2.048-2.030933-2.048-4.078933-2.030933-2.030933-2.048-2.048-2.048-4.078933-2.030933-4.078933-2.048-2.048-2.048-2.030933-2.030933-4.078933-2.048-2.048-2.030933-2.048-2.048-2.030933-2.048L124.347733 472.917333l-4.078933-4.096-2.030933-2.030933-4.078933-2.048-2.030933-2.048-2.048-2.030933-2.030933-2.048-2.048-2.030933-2.030933-2.048-2.048-2.048-2.048-2.030933-2.030933-2.048-2.048-2.048-2.048-2.030933-2.030933-2.048-2.048-2.048-2.030933-2.030933-2.048-4.078933-2.048-2.048-2.030933-2.048-2.048-2.030933-2.030933-2.048-2.048-2.048L73.386667 421.819733l-2.048-4.078933-2.048-2.048-2.030933-2.048-2.048-4.078933-2.030933-2.048-2.048-2.030933-2.048-4.096-2.030933-2.030933-2.048-2.048-2.048-4.078933L50.961067 389.12l-2.048-2.048L46.882133 382.976l-2.048-4.096-2.048-2.030933-2.030933-4.078933-2.048-4.096L36.693333 364.578133l-2.048-2.048-2.048-6.126933-2.030933-4.078933-2.048-4.078933-2.030933-2.048-2.048-6.126933-2.048-6.109867-2.030933-4.096-2.048-6.126933-2.030933-6.126933-2.048-6.109867L12.2368 305.322667l-2.048-4.096 0-4.078933-2.048-6.126933-2.030933-8.174933-2.048-12.270933L2.048 258.304 0 231.7312l0-24.541867 2.048-18.397867 0-6.109867 2.030933-12.270933 2.048-10.222933 2.030933-10.24 2.048-4.078933 2.048-10.222933 2.030933-6.126933 2.048-6.126933 2.030933-4.078933 2.048-6.126933 2.030933-6.126933 2.048-6.126933 2.048-4.078933 2.030933-2.048 2.048-6.126933 2.030933-4.078933 2.048-4.078933 2.048-2.048 2.030933-6.126933 2.048-2.030933 2.030933-4.096 2.048-2.030933 2.048-4.096 2.030933-2.030933 2.048-6.126933 2.030933-2.048 2.048-2.030933 2.048-2.048 2.030933-4.078933 2.048-4.096 4.078933 0 0-6.109867 2.048-2.048 2.030933-2.048 2.048-2.030933 2.048-2.048 2.030933-2.048 2.048-2.030933 2.030933-4.096 2.048-2.030933 2.030933-2.048 2.048-2.030933 2.048-2.048 2.030933-2.048 2.048-2.030933 2.030933-2.048 2.048-2.048 2.048-2.030933 2.030933-2.048 4.078933-2.048 2.030933-2.030933 2.048-2.048 2.030933-2.030933 2.048-2.048 2.030933-2.048 2.048-2.030933 2.048-2.048 4.078933-2.048 2.048-2.030933 4.078933-2.048 2.030933-2.048 2.048-2.030933 4.078933-2.048 4.078933-2.030933 2.048-2.048 4.078933-2.048 4.078933-2.030933 2.048-2.048 4.078933-2.048 2.048-2.030933 4.078933-2.048 6.109867-2.030933 2.030933-2.048 6.109867-2.048 2.048-2.030933 6.109867-2.048 4.078933-2.048 4.078933-2.030933 6.109867-2.048 6.109867-2.048 6.109867-2.030933 6.109867-2.048 6.109867-2.030933 8.157867-2.048 8.157867-2.048 6.109867-2.030933 4.078933 0 10.1888-2.048 16.315733-2.048 8.157867 0 18.346667-2.030933 2.048 0 30.583467 2.030933 18.346667 2.048 4.078933 0 8.157867 2.048 10.1888 2.030933 4.078933 0 4.078933 2.048 10.1888 2.048 6.109867 2.030933 4.078933 0 4.078933 2.048 6.109867 2.030933 6.109867 2.048 4.078933 2.048 2.048 2.030933 0 6.126933-2.048 6.126933L423.970133-44.202667z"  horiz-adv-x="1024" />

    
    <glyph glyph-name="yaoyiyao3" unicode="&#59052;" d="M919.424 859.712l-10.496-39.552c25.728-6.72 47.296-23.232 60.608-46.4 13.504-23.168 17.152-50.176 10.112-76.16l39.488-10.496c9.728 36.416 4.608 74.496-14.272 107.2C985.984 826.816 955.712 850.048 919.424 859.712zM54.464-1.024c-13.44 23.104-17.088 50.112-10.048 76.032l-39.552 10.496c-9.664-36.288-4.544-74.432 14.272-107.008 18.88-32.64 49.28-55.744 85.568-65.408l10.496 39.488C89.344-40.64 67.84-24.128 54.464-1.024zM762.24 787.008 495.552 858.368C408.576 881.728 318.976 830.08 295.744 742.976l-149.376-557.504c-23.296-86.976 28.352-176.512 115.392-199.872l266.688-71.36c86.976-23.36 176.576 28.288 199.872 115.392l149.376 557.504C900.928 674.112 849.28 763.648 762.24 787.008zM781.184 519.296l-102.656-382.656c-11.776-43.52-56.448-69.312-99.968-57.6l-277.824 74.432c-43.584 11.712-69.44 56.448-57.664 100.032l102.528 382.528c11.712 43.52 56.448 69.312 99.968 57.664l277.952-74.432C766.912 607.552 792.832 562.816 781.184 519.296z"  horiz-adv-x="1024" />

    
    <glyph glyph-name="shezhi1" unicode="&#58935;" d="M1021.452956 452.170697c-2.94308 38.196064-10.044861 41.650984-47.793065 38.643924-41.778944-3.32696-77.095908 17.466542-91.491409 53.871165-14.779381 37.236364-4.09472 75.624367 28.471103 102.30403 21.945142 17.978382 24.632302 32.565823 4.73452 53.615245-29.942643 31.670103-61.164886 62.252546-93.730709 91.171509-25.272102 22.393002-37.044424 19.513902-58.413746-7.421681-26.103843-32.885723-67.882787-42.674664-105.82293-24.952202-35.572883 16.634802-52.271665 47.025305-49.520525 90.147829 1.85542 29.558763-6.845861 39.923524-36.340644 42.162824-23.032802 1.79144-46.065604 3.00706-67.690847 4.41462C481.141803 893.63274 459.964421 891.77732 438.978979 888.962199 409.612156 885.059419 403.278136 876.486098 405.837336 846.415495 409.740116 800.797751 390.738054 766.504467 352.861891 750.829366 316.137367 735.602124 278.133243 746.542705 249.278261 780.580069c-17.082662 20.153702-31.990003 23.096782-50.864105 5.246361C166.680072 756.011746 135.521809 725.301343 106.602847 692.67154 81.906564 664.840237 84.657704 655.371197 113.192787 631.570634 140.32031 608.921712 152.092631 579.938769 144.54299 544.877726 136.80141 509.240862 114.216467 486.33602 78.899504 478.082599 65.911563 475.075539 51.644021 476.994939 38.01628 477.122899 19.462078 477.314839 7.753737 468.869478 5.322497 450.699157-1.395404 400.282912-1.651324 349.802687 7.497817 299.578382c3.58288-19.833802 14.267541-27.511403 34.293283-26.295783C52.347801 273.922399 63.032462 276.417619 73.397223 275.393939c36.980444-3.64686 66.027366-28.215183 76.008247-62.828366 9.980881-34.421243-1.85542-69.546267-31.542143-93.410809-24.440362-19.641862-27.127523-33.269603-5.886161-55.854545 29.430803-31.286223 59.949266-61.740706 92.195189-90.083849 27.447423-24.120462 37.876164-21.305342 60.781006 7.933521 31.414183 40.179444 87.716589 45.553764 126.232552 12.604061 25.847923-22.137082 32.757763-50.096345 29.366823-82.598188-2.49522-23.992502 6.334021-37.812184 27.383443-38.260044 47.281225-0.9597 94.690409-1.15164 141.843674 1.66348 30.710403 1.85542 36.788504 12.796001 33.333583 43.762324-5.05442 44.913964 13.819681 80.166948 51.503905 96.161949 38.068104 16.122962 76.648047 5.182381 104.86323-29.750703 17.274602-21.369322 32.437863-24.504342 52.015745-5.822181 32.437863 30.902343 63.980006 62.956326 93.730709 96.417869 21.625242 24.312402 18.554202 37.428304-7.485661 57.070166-21.753202 16.378882-34.037363 38.132084-35.572883 65.195626-3.199 55.342705 41.906904 97.31359 97.95339 91.747329 28.599063-2.81512 42.610684 5.310341 43.250484 30.262543C1024.460016 363.750328 1024.843896 408.152452 1021.452956 452.170697zM513.387726 160.997688c-122.969572 1.34358-221.626742 101.40831-220.027241 223.162262 1.5995 120.154452 100.76851 218.939581 219.259481 218.427741 122.457732-0.51184 223.482162-101.21637 222.202562-221.690722C733.606908 258.823118 633.670138 159.654108 513.387726 160.997688z"  horiz-adv-x="1025" />

    
    <glyph glyph-name="location3dingwei3" unicode="&#59062;" d="M544.148188-62.210621l-4.134157 0c-8.260128 2.802836-12.393261 8.268314-12.393261 16.528442L527.620769 400.58677 81.350796 400.58677c-8.260128 0-13.769608 4.134157-16.528442 12.394285-2.750647 9.599635 0.686638 15.796778 10.331299 18.599613L934.63467 828.265316c5.509481 4.134157 11.706623 3.402493 18.591427-2.071172 5.509481-6.928806 6.197142-13.125949 2.071172-18.591427L558.613644-51.879322C555.85481-58.763103 551.032992-62.210621 544.148188-62.210621zM155.732877 433.644677l388.41531 0c11.018961 0 16.529465-5.509481 16.529465-16.528442l0-388.41531L907.774929 780.741953 155.732877 433.644677z"  horiz-adv-x="1024" />

    
    <glyph glyph-name="location3bdingwei3" unicode="&#59063;" d="M544.779567-62.174805l-4.139274 0c-8.269337 2.806929-12.407588 8.278547-12.407588 16.547885l0 446.785719L81.446987 401.158798c-8.269337 0-13.784958 4.139274-16.546861 12.417821-2.753717 9.610892 0.687662 15.815197 10.342556 18.612916L935.718351 829.331601c5.51562 4.139274 11.720949 3.406586 18.612916-2.065032 5.51562-6.936993 6.204305-13.149485 2.074242-18.621103L559.26242-51.831226C556.499493-58.723194 551.672558-62.174805 544.779567-62.174805z"  horiz-adv-x="1024" />

    
    <glyph glyph-name="lightningbshandian" unicode="&#59065;" d="M434.897971-66.214818c-2.485611 0-4.357238 0.661056-5.599532 1.871627-8.714476 2.52552-11.821233 7.463995-9.335622 14.935154l57.877175 341.637937L225.804792 292.2299c-6.220678 0-10.577916 2.492774-13.071713 7.471159-3.727904 4.938476-3.106758 10.538007 1.871627 16.799618L602.920756 824.297958c4.978385 7.471159 10.577916 8.674567 16.799618 3.736091 6.220678-1.242294 9.335622-6.260587 9.335622-14.935154l-57.877175-341.646124L793.34269 471.452771c6.220678 0 10.577916-2.52552 13.071713-7.463995 1.242294-4.978385 1.242294-10.577916 0-16.806781L447.969685-60.615287C444.233594-64.343191 439.876356-66.214818 434.897971-66.214818z"  horiz-adv-x="1024" />

    
    <glyph glyph-name="zhaopianphoto183" unicode="&#58901;" d="M896 896 128 896C57.28 896 0 838.72 0 768l0-768c0-70.72 57.28-128 128-128l768 0c70.72 0 128 57.28 128 128L1024 768C1024 838.72 966.72 896 896 896zM512 512c117.824 0 128-128 128-128s3.712-128-128-128S384 384 384 384 394.112 512 512 512zM896 64c0-35.328-28.672-64-64-64L192 0c-35.328 0-64 28.672-64 64L128 384c0 35.328 28.672 64 64 64l73.024 0C259.712 427.456 256 406.208 256 384c0-141.376 114.624-256 256-256 141.376 0 256 114.624 256 256 0 22.208-3.712 43.456-9.024 64L832 448c35.328 0 64-28.672 64-64L896 64zM896 640c0-35.328-28.672-64-64-64l-64 0c-35.328 0-64 28.672-64 64L704 704c0 35.328 28.672 64 64 64l64 0c35.328 0 64-28.672 64-64L896 640z"  horiz-adv-x="1024" />

    
    <glyph glyph-name="zhaopianphoto182" unicode="&#59867;" d="M369.792 832C377.664 832 384 837.696 384 844.8L384 883.2C384 890.304 377.664 896 369.792 896L270.208 896C262.336 896 256 890.304 256 883.2l0-38.4C256 837.76 262.336 832 270.208 832L369.792 832zM736 352m-224 0a3.5 3.5 0 1 0 448 0 3.5 3.5 0 1 0-448 0ZM0 640l0-640c0-128 128-128 128-128l1152 0c0 0 128 0 128 128L1408 640c0 128-128 128-128 128l-256 0-64 128L512 896 448 768 128 768C128 768 0 768 0 640zM1088 640c35.328 0 64-28.672 64-64 0-35.328-28.672-64-64-64-35.328 0-64 28.672-64 64C1024 611.328 1052.672 640 1088 640zM736 640C895.04 640 1024 511.04 1024 352c0-159.04-128.96-288-288-288C576.96 64 448 192.96 448 352 448 511.04 576.96 640 736 640z"  horiz-adv-x="1408" />

    
    <glyph glyph-name="wocur" unicode="&#59074;" d="M511.991302 767.91481c-212.038254 0-383.906623-171.883719-383.906623-383.91481s171.868369-383.91481 383.906623-383.91481c212.031091 0 383.922996 171.883719 383.922996 383.91481S724.022393 767.91481 511.991302 767.91481zM511.991302 48.074158c-79.240739 0-151.927201 27.603685-209.382774 73.499991l158.574598 84.949764-37.632085 29.79049c-46.208415 36.601616-63.438844 113.00575-63.438844 152.559605L360.112196 489.038288c0 45.36521 75.061556 108.476597 148.966777 108.476597 74.154907 0 146.654105-62.111616 146.654105-108.476597l0-100.165304c0-39.646975-12.450567-116.412336-59.143005-152.747893l-38.601156-30.008454 162.253384-85.386716C662.981155 75.364711 590.731644 48.074158 511.991302 48.074158z"  horiz-adv-x="1024" />

    
    <glyph glyph-name="wode" unicode="&#58921;" d="M497.377 344.747c69.509 37.109 116.969 110.333 116.969 194.478 0 121.515-98.864 220.393-220.379 220.393s-220.379-98.864-220.379-220.393c0-84.828 48.251-158.487 118.675-195.311-153.409-44.947-267.168-186.354-269.366-353.513l40.96-0.532c2.375 180.907 151.498 328.076 332.418 328.076s330.042-147.169 332.404-328.076l40.96 0.532c-2.212 168.209-117.405 310.34-272.261 354.345zM214.548 539.225c0 98.932 80.486 179.433 179.419 179.433s179.419-80.5 179.419-179.433-80.486-179.419-179.419-179.419-179.419 80.486-179.419 179.419zM729.47 344.747c69.523 37.109 116.969 110.333 116.969 194.492 0 119.644-95.887 217.102-214.821 220.092l0-40.96c96.352-2.963 173.861-82.07 173.861-179.132s-77.51-176.169-173.861-179.146l0-42.229c179.445-1.747 326.82-148.179 329.168-327.994l40.96 0.532c-2.198 168.209-117.405 310.34-272.275 354.345z"  horiz-adv-x="1024" />

    
    <glyph glyph-name="faxian1" unicode="&#59112;" d="M56.888889 697.08509 56.888889 697.08509 56.888889 526.026021C56.888889 494.708241 82.265742 469.333333 113.581568 469.333333L284.640654 469.333333C315.958414 469.333333 341.333333 494.710187 341.333333 526.026021L341.333333 697.08509C341.333333 728.40287 315.95648 753.777778 284.640654 753.777778L113.581568 753.777778C82.263808 753.777778 56.888889 728.400924 56.888889 697.08509L56.888889 697.08509ZM0 697.08509C0 759.814463 50.839609 810.666667 113.581568 810.666667L284.640654 810.666667C347.370012 810.666667 398.222222 759.827061 398.222222 697.08509L398.222222 526.026021C398.222222 463.296649 347.382613 412.444444 284.640654 412.444444L113.581568 412.444444C50.85221 412.444444 0 463.28405 0 526.026021L0 697.08509 0 697.08509ZM56.888889 156.640646 56.888889 156.640646 56.888889-14.418423C56.888889-45.736203 82.265742-71.111111 113.581568-71.111111L284.640654-71.111111C315.958414-71.111111 341.333333-45.734258 341.333333-14.418423L341.333333 156.640646C341.333333 187.958426 315.95648 213.333333 284.640654 213.333333L113.581568 213.333333C82.263808 213.333333 56.888889 187.95648 56.888889 156.640646L56.888889 156.640646ZM0 156.640646C0 219.370018 50.839609 270.222222 113.581568 270.222222L284.640654 270.222222C347.370012 270.222222 398.222222 219.382616 398.222222 156.640646L398.222222-14.418423C398.222222-77.147796 347.382613-128 284.640654-128L113.581568-128C50.85221-128 0-77.160394 0-14.418423L0 156.640646 0 156.640646ZM597.333333 156.640646 597.333333 156.640646 597.333333-14.418423C597.333333-45.736203 622.710187-71.111111 654.026012-71.111111L825.085099-71.111111C856.402859-71.111111 881.777778-45.734258 881.777778-14.418423L881.777778 156.640646C881.777778 187.958426 856.400924 213.333333 825.085099 213.333333L654.026012 213.333333C622.708252 213.333333 597.333333 187.95648 597.333333 156.640646L597.333333 156.640646ZM540.444444 156.640646C540.444444 219.370018 591.284053 270.222222 654.026012 270.222222L825.085099 270.222222C887.814457 270.222222 938.666667 219.382616 938.666667 156.640646L938.666667-14.418423C938.666667-77.147796 887.827058-128 825.085099-128L654.026012-128C591.296654-128 540.444444-77.160394 540.444444-14.418423L540.444444 156.640646 540.444444 156.640646ZM529.810432 568.563627 529.810432 568.563627 529.810432 568.563627 696.563627 401.810421C720.31141 378.062643 758.800811 378.063741 782.547484 401.810421L949.300679 568.563627C973.048462 592.311404 973.047381 630.800808 949.300679 654.547484L782.547484 821.30069C758.799701 845.048468 720.3103 845.04737 696.563627 821.30069L529.810432 654.547484C506.062649 630.799707 506.06373 592.310303 529.810432 568.563627L529.810432 568.563627ZM489.5839 528.337106C443.623623 574.297387 443.61674 648.806841 489.5839 694.774005L656.337095 861.527208C702.297401 907.487488 776.806855 907.494372 822.774016 861.527208L989.527211 694.774005C1035.487488 648.813724 1035.494372 574.30427 989.527211 528.337106L822.774016 361.583903C776.81371 315.623623 702.304256 315.61674 656.337095 361.583903L489.5839 528.337106 489.5839 528.337106Z"  horiz-adv-x="1024" />

    
    <glyph glyph-name="faxianxuanze" unicode="&#59113;" d="M0 697.08509C0 759.814463 50.839609 810.666667 113.581568 810.666667L284.640654 810.666667C347.370012 810.666667 398.222222 759.827061 398.222222 697.08509L398.222222 526.026021C398.222222 463.296649 347.382613 412.444444 284.640654 412.444444L113.581568 412.444444C50.85221 412.444444 0 463.28405 0 526.026021L0 697.08509ZM0 156.640646C0 219.370018 50.839609 270.222222 113.581568 270.222222L284.640654 270.222222C347.370012 270.222222 398.222222 219.382616 398.222222 156.640646L398.222222-14.418423C398.222222-77.147796 347.382613-128 284.640654-128L113.581568-128C50.85221-128 0-77.160394 0-14.418423L0 156.640646ZM540.444444 156.640646C540.444444 219.370018 591.284053 270.222222 654.026012 270.222222L825.085099 270.222222C887.814457 270.222222 938.666667 219.382616 938.666667 156.640646L938.666667-14.418423C938.666667-77.147796 887.827058-128 825.085099-128L654.026012-128C591.296654-128 540.444444-77.160394 540.444444-14.418423L540.444444 156.640646ZM489.5839 528.337106C443.623623 574.297387 443.61674 648.806841 489.5839 694.774005L656.337095 861.527208C702.297401 907.487488 776.806855 907.494372 822.774016 861.527208L989.527211 694.774005C1035.487488 648.813724 1035.494372 574.30427 989.527211 528.337106L822.774016 361.583903C776.81371 315.623623 702.304256 315.61674 656.337095 361.583903L489.5839 528.337106Z"  horiz-adv-x="1024" />

    
    <glyph glyph-name="weixin" unicode="&#58941;" d="M249.173333 560.128c0-10.922667 4.437333-21.504 11.946667-29.013333 7.509333-7.509333 18.432-11.946667 29.013333-11.946667 10.922667 0 21.504 4.437333 29.013333 11.946667 7.509333 7.509333 11.946667 18.432 11.946667 29.013333 0 10.922667-4.437333 21.504-11.946667 29.013333-7.509333 7.509333-18.432 11.946667-29.013333 11.946667-10.922667 0-21.504-4.437333-29.013333-11.946667C253.610667 581.632 249.173333 570.709333 249.173333 560.128L249.173333 560.128zM249.173333 560.128M569.344 347.136c0-8.533333 3.413333-16.725333 9.557333-22.869333 5.802667-5.802667 14.336-9.557333 22.869333-9.557333 8.533333 0 16.725333 3.413333 22.869333 9.557333 5.802667 5.802667 9.557333 14.336 9.557333 22.869333 0 8.533333-3.413333 16.725333-9.557333 22.869333-5.802667 5.802667-14.336 9.557333-22.869333 9.557333-8.533333 0-16.725333-3.413333-22.869333-9.557333C573.098667 364.202667 569.344 355.669333 569.344 347.136L569.344 347.136zM569.344 347.136M459.093333 560.128c0-10.922667 4.437333-21.504 11.946667-29.013333 7.509333-7.509333 18.432-11.946667 29.013333-11.946667 10.922667 0 21.504 4.437333 29.013333 11.946667 7.509333 7.509333 11.946667 18.432 11.946667 29.013333 0 10.922667-4.437333 21.504-11.946667 29.013333-7.509333 7.509333-18.432 11.946667-29.013333 11.946667-10.922667 0-21.504-4.437333-29.013333-11.946667C463.530667 581.632 459.093333 570.709333 459.093333 560.128L459.093333 560.128zM459.093333 560.128M842.069333 868.693333 181.930667 868.693333C94.549333 868.693333 23.893333 797.696 23.893333 709.973333l0-659.456c0-87.722667 70.997333-158.72 158.378667-158.72l660.138667 0c87.381333 0 158.378667 70.997333 158.378667 158.72L1000.789333 709.973333C1000.448 797.696 929.450667 868.693333 842.069333 868.693333L842.069333 868.693333zM390.144 214.357333c-36.864 0-66.56 7.509333-103.765333 15.018667l-103.424-51.882667 29.696 89.088c-74.069333 51.882667-118.442667 118.442667-118.442667 200.021333 0 140.970667 133.461333 251.904 296.277333 251.904 145.749333 0 273.066667-88.746667 298.666667-207.872-9.557333 1.024-18.773333 1.706667-28.672 1.706667-140.629333 0-251.904-105.130667-251.904-234.496 0-21.504 3.413333-42.325333 9.216-62.122667C408.917333 214.698667 399.701333 214.357333 390.144 214.357333L390.144 214.357333zM827.050667 110.592l22.186667-74.069333-81.237333 44.373333c-29.696-7.509333-59.392-15.018667-88.746667-15.018667-140.970667 0-251.904 96.256-251.904 215.04 0 118.442667 110.933333 215.04 251.904 215.04 133.12 0 251.562667-96.597333 251.562667-215.04C930.816 214.357333 886.442667 154.965333 827.050667 110.592L827.050667 110.592zM827.050667 110.592M730.794667 347.136c0-8.533333 3.413333-16.725333 9.557333-22.869333 5.802667-5.802667 14.336-9.557333 22.869333-9.557333 8.533333 0 16.725333 3.413333 22.869333 9.557333 5.802667 5.802667 9.557333 14.336 9.557333 22.869333 0 8.533333-3.413333 16.725333-9.557333 22.869333-5.802667 5.802667-14.336 9.557333-22.869333 9.557333-8.533333 0-16.725333-3.413333-22.869333-9.557333C734.208 364.202667 730.794667 355.669333 730.794667 347.136L730.794667 347.136zM730.794667 347.136"  horiz-adv-x="1024" />

    
    <glyph glyph-name="saoyisao1" unicode="&#58960;" d="M62.976 833.024l0-897.705 897.705 0L960.681 833.024 62.976 833.024zM320.933 444.605c-0.885-37.212 6.212-93.017-38.098-93.032-30.126-0.011-31.011 36.331-31.011 36.331l-19.492 178.972c0 0-14.178 93.918 120.497 96.576 134.676 2.659 148.85-114.295 148.85-114.295l113.413 0c0 0 26.575-5.316 25.693-37.214-0.888-31.896-22.151-31.009-22.151-31.009l-264.918-0.003C353.714 480.931 321.818 481.818 320.933 444.605zM670.501 102.623C535.823 99.966 521.65 216.92 521.65 216.92L408.237 216.92c0 0-26.577 5.316-25.692 37.214 0.885 31.896 22.15 31.014 22.15 31.014l264.917 0c0 0 31.894-0.888 32.782 36.325 0.888 37.215-6.209 93.017 38.1 93.032 30.122 0.01 31.009-36.326 31.009-36.326l19.493-178.978C790.996 199.201 805.175 105.281 670.501 102.623z"  horiz-adv-x="1024" />

    
    <glyph glyph-name="pingmusuoding" unicode="&#58926;" d="M865.205 196.496l135.175 228.929-106.834 0c-20.714 222.388-207.126 395.721-433.874 395.721-242.011 0-437.145-195.135-437.145-437.145s195.135-437.145 437.145-437.145c128.636 0 243.101 55.598 322.681 142.809l-43.605 44.695c-68.678-76.309-168.972-125.366-279.075-125.366-206.035 0-373.917 167.882-373.917 373.917s167.882 373.917 373.917 373.917c192.954 0 351.024-146.078 371.737-332.492l-101.382 0 135.175-227.839zM459.674 633.641c-68.678 0-124.276-56.688-124.276-124.276l0-82.851-41.425 0 0-228.929 332.492 0 0 227.839-41.425 0 0 82.851c-1.09 69.77-55.598 125.366-125.366 125.366zM521.811 425.425l-124.276 0 0 82.851c0 33.794 27.253 63.228 63.228 63.228 33.794 0 63.228-27.253 63.228-63.228l-2.18-82.851z"  horiz-adv-x="1024" />

    
    <glyph glyph-name="jinbishangchengyuan" unicode="&#58912;" d="M512 896C228.8 896 0 667.2 0 384s228.8-512 512-512 512 228.8 512 512S795.2 896 512 896zM512 97.6c-76.8 0-148.8 30.4-203.2 84.8-4.8 4.8-6.4 11.2-6.4 17.6 0 12.8 11.2 24 24 24 6.4 0 12.8-3.2 17.6-6.4 44.8-44.8 105.6-70.4 169.6-70.4C643.2 145.6 752 252.8 752 384S643.2 624 512 624c-131.2 0-238.4-107.2-238.4-238.4 0-3.2 0-4.8 0-8l0 0c0-6.4-1.6-14.4-6.4-19.2-4.8-4.8-11.2-6.4-17.6-6.4-12.8 0-24 11.2-24 24l0 0c0 3.2 0 6.4 0 9.6 0 156.8 129.6 286.4 286.4 286.4S798.4 540.8 798.4 384C798.4 227.2 668.8 97.6 512 97.6zM393.6 516.8c-4.8 4.8-6.4 11.2-6.4 17.6 0 6.4 3.2 12.8 6.4 17.6s11.2 6.4 17.6 6.4c6.4 0 12.8-3.2 17.6-6.4l84.8-84.8 84.8 84.8c4.8 4.8 11.2 6.4 17.6 6.4 12.8 0 24-11.2 24-24 0-6.4-3.2-12.8-6.4-17.6l-83.2-83.2 88 0c11.2 0 20.8-9.6 20.8-20.8 0-11.2-9.6-20.8-20.8-20.8l-102.4 0 0-41.6 81.6 0c11.2 0 20.8-9.6 20.8-20.8 0-11.2-9.6-20.8-20.8-20.8l-81.6 0 0-81.6c0-11.2-9.6-20.8-20.8-20.8s-20.8 9.6-20.8 20.8l0 81.6-81.6 0c-11.2 0-20.8 9.6-20.8 20.8 0 11.2 9.6 20.8 20.8 20.8l81.6 0 0 41.6-102.4 0c-11.2 0-20.8 9.6-20.8 20.8 0 11.2 9.6 20.8 20.8 20.8l86.4 0L393.6 516.8z"  horiz-adv-x="1024" />

    
    <glyph glyph-name="liaotianweixuanzhong" unicode="&#58884;" d="M1068.521739 415.27385C1068.521739 247.452058 952.462924 106.744489 796.378005 69.074904L798.67847 5.363338C802.240036-93.274624 745.801292-119.062016 672.650845-53.116104L548.099174 59.168559 355.802267 59.168559C159.298101 59.168559 0 218.539885 0 415.27385L0 539.894706C0 736.566229 159.391214 896 355.802267 896L712.719471 896C909.223638 896 1068.521739 736.628671 1068.521739 539.894706L1068.521739 415.27385ZM1024 539.894706C1024 712.025702 884.649232 851.478261 712.719471 851.478261L355.802267 851.478261C183.954419 851.478261 44.521739 711.952052 44.521739 539.894706L44.521739 415.27385C44.521739 243.142856 183.872509 103.690298 355.802267 103.690298L548.099174 103.690298C559.110705 103.690298 569.731575 99.609604 577.910236 92.236453L702.461907-20.048206C746.584776-59.825446 756.319196-55.329885 754.185724 3.75682L751.885259 67.468386C751.12147 88.621639 765.356709 107.388193 785.932996 112.354081 924.533818 145.804048 1024 270.560394 1024 415.27385L1024 539.894706ZM734.608696 539.826087C746.903036 539.826087 756.869565 549.792618 756.869565 562.086957 756.869565 574.381295 746.903036 584.347826 734.608696 584.347826L333.913043 584.347826C321.618705 584.347826 311.652174 574.381295 311.652174 562.086957 311.652174 549.792618 321.618705 539.826087 333.913043 539.826087L734.608696 539.826087ZM734.608696 361.73913C746.903036 361.73913 756.869565 371.70566 756.869565 384 756.869565 396.29434 746.903036 406.26087 734.608696 406.26087L333.913043 406.26087C321.618705 406.26087 311.652174 396.29434 311.652174 384 311.652174 371.70566 321.618705 361.73913 333.913043 361.73913L734.608696 361.73913Z"  horiz-adv-x="1069" />

    
    <glyph glyph-name="liaotianxuanzhong1" unicode="&#58885;" d="M712.347826 896 356.173913 896C160.278261 896 0 735.721739 0 539.826087l0-124.66087c0-195.895652 160.278261-356.173913 356.173913-356.173913l191.443478 0 124.66087-111.304348c71.234783-66.782609 129.113043-40.069565 124.66087 57.878261l-4.452174 62.330435c155.826087 35.617391 271.582609 178.086957 271.582609 347.269565L1064.069565 539.826087C1068.521739 735.721739 908.243478 896 712.347826 896zM734.608696 361.73913l-400.695652 0C320.556522 361.73913 311.652174 370.643478 311.652174 384 311.652174 397.356522 320.556522 406.26087 333.913043 406.26087l400.695652 0c13.356522 0 22.26087-8.904348 22.26087-22.26087C756.869565 370.643478 747.965217 361.73913 734.608696 361.73913zM734.608696 539.826087l-400.695652 0C320.556522 539.826087 311.652174 548.730435 311.652174 562.086957 311.652174 575.443478 320.556522 584.347826 333.913043 584.347826l400.695652 0C747.965217 584.347826 756.869565 575.443478 756.869565 562.086957 756.869565 548.730435 747.965217 539.826087 734.608696 539.826087z"  horiz-adv-x="1069" />

    
    <glyph glyph-name="changyonglogo42" unicode="&#59172;" d="M417.736615 526.839219c56.196906 0.449231 103.130845 48.491411 102.43909 104.861256-0.691755 56.587809-46.316885 101.70231-103.013165 101.852736-58.531068 0.156566-103.307877-44.144406-103.360066-102.255918C313.754379 573.018981 360.162338 526.377708 417.736615 526.839219zM851.660398 204.792479c-37.637202 121.375371-158.786423 214.774575-285.144272 220.35671-17.491373 0.769526-35.054377-0.49835-52.745295-0.160659 0.704035 6.260587 4.533246 6.703679 7.355525 8.096399 31.556717 15.556301 58.550511 36.912701 80.905658 64.024176 48.651047 59.013045 66.246797 126.626979 55.908334 202.065112-1.946328 14.213723-7.401574 19.48375-22.228257 14.403035-16.356526-5.602601-33.228799-9.994632-50.17168-13.492292-14.236236-2.939959-17.247826-9.963932-15.189957-23.790846 15.70468-105.458867-85.216847-200.695928-189.68106-179.143053-57.163931 11.793604-98.05934 44.421722-120.739898 98.501408-4.592598 10.955516-9.847276 14.515598-21.493523 10.771321-17.546631-5.635347-35.381835-10.613732-53.391001-14.47262-15.540951-3.333932-16.70445-11.079336-11.305487-24.056905 34.464953-82.869383 95.204315-134.64049 182.40126-155.76767 21.804608-5.284353 44.160779-3.176342 66.627467-7.017834-22.122857-11.860119-43.822065-23.092951-63.958684-37.207413-20.277836-14.213723-38.784328-30.429033-54.954613-49.018414-68.738547-79.033008-94.935186-170.32727-78.224596-273.957489 2.00261-12.426007 6.627954-15.886829 18.936281-12.370749 26.325575 7.523347 52.856835 14.435781 79.545684 20.532639 13.154601 3.003404 16.737196 8.991792 14.734586 22.363334-18.497283 123.397425 79.860862 237.96781 204.507744 238.839667 87.061868 0.60989 166.247348-53.306066 197.518562-135.535883 4.864798-12.794397 10.595312-15.947204 23.571858-12.105712 25.708522 7.617491 51.758828 14.176884 77.879742 20.264533C853.646636 189.552379 854.833671 194.552254 851.660398 204.792479z"  horiz-adv-x="1024" />

    
    <glyph glyph-name="iconfontyouxihudong" unicode="&#58934;" d="M1018.88 276.48C985.6 565.76 926.72 773.12 739.84 773.12c-94.72 0-143.36-97.28-227.84-104.96-87.04 7.68-133.12 104.96-227.84 104.96-186.88 0-245.76-207.36-276.48-494.08-17.92-153.6-2.56-281.6 92.16-281.6 133.12 0 138.24 120.32 232.96 176.64 35.84 17.92 115.2 25.6 181.76 28.16 66.56-2.56 145.92-10.24 181.76-28.16 94.72-56.32 99.84-176.64 232.96-176.64C1021.44-5.12 1034.24 122.88 1018.88 276.48L1018.88 276.48zM286.72 302.08C212.48 302.08 153.6 363.52 153.6 435.2s58.88 133.12 133.12 133.12 133.12-58.88 133.12-133.12S358.4 302.08 286.72 302.08L286.72 302.08zM883.2 409.6l-104.96 0 0-104.96-51.2 0L727.04 409.6l-104.96 0 0 51.2 104.96 0L727.04 563.2l51.2 0L778.24 460.8l104.96 0L883.2 409.6 883.2 409.6 883.2 409.6zM883.2 409.6M209.92 435.2c0-20.48 7.68-38.4 23.04-53.76 12.8-12.8 33.28-23.04 53.76-23.04 20.48 0 38.4 7.68 53.76 23.04 12.8 12.8 23.04 33.28 23.04 53.76 0 20.48-7.68 38.4-23.04 53.76-12.8 12.8-33.28 23.04-53.76 23.04-20.48 0-38.4-7.68-53.76-23.04C217.6 476.16 209.92 455.68 209.92 435.2L209.92 435.2zM209.92 435.2"  horiz-adv-x="1025" />

    
    <glyph glyph-name="gengduo" unicode="&#58893;" d="M546.816-21.471232c0-11.501568-16.541696-20.680704-27.252736-20.680704-11.49952 0-28.043264 9.177088-28.043264 20.680704L491.52 778.622976c0 11.49952 16.543744 20.680704 28.043264 20.680704 10.708992 0 27.252736-9.179136 27.252736-20.680704L546.816-21.471232zM121.460736 353.28c-11.501568 0-20.680704 16.543744-20.680704 27.27936 0 11.474944 9.179136 28.01664 20.680704 28.01664l800.094208 0c11.49952 0 20.680704-16.541696 20.680704-28.01664 0-10.735616-9.179136-27.27936-20.680704-27.27936L121.460736 353.28z"  horiz-adv-x="1024" />

    
    <glyph glyph-name="icon_qq" unicode="&#58928;" d="M154.285 435.424c-89.152-67.424-144-152-144-266.272 0-21.152 5.152-38.304 13.152-57.152 3.424-1.152 1.696-5.728 6.272-5.728h0.576c33.152 3.456 62.848 34.88 75.424 64 1.152 2.88 2.848 11.456 6.848 11.456l2.88-1.728c8.576-41.152 64-140.576 103.424-149.728l1.152-1.696c0-1.728-0.576-1.728-1.152-2.304-2.848-0.544-5.152-1.12-8-1.12-20.576-1.152-33.728-10.88-51.424-14.304-22.304-20.576-29.152-29.696-29.152-61.696 0-74.304 168-77.152 211.424-77.152 49.152 0 134.304 10.272 169.152 48.576 14.848-1.728 35.424 0.576 49.152-3.424 65.696-19.424 122.272-37.728 192-37.728 52.544 0 140 6.304 172.544 55.424 4.576 6.304 3.456 13.152 6.304 19.424-9.728 54.304-62.304 51.456-94.848 82.88 37.12 35.424 57.12 80 75.424 127.424l2.848 2.272c0.576 0 1.152 0 1.728-0.576 8-14.848 32.544-69.12 54.848-69.12 32 0 42.848 69.696 42.848 89.696 0 90.304-44.576 169.152-93.696 241.728-0.576 1.152-4 5.696-4 6.848 0 13.728 10.272 29.152 10.272 44.576 0 30.848-14.848 60.576-31.424 85.728l-0.576 2.848c-28.576 134.272-58.848 239.424-193.152 296-46.848 19.424-101.696 31.424-152 31.424-64.576 0-126.272-9.728-185.12-37.728-95.456-45.696-177.152-178.848-177.152-284.544-11.424-9.728-17.728-40-17.152-54.88-9.696-12-20-37.696-20-53.696 0-10.304 0.576-20 4.576-29.728z"  horiz-adv-x="1024" />

    
    <glyph glyph-name="card" unicode="&#58999;" d="M0 465.152l0-399.616c0-39.168 31.744-70.912 70.912-70.912l881.92 0c39.168 0 70.912 31.744 70.912 70.912L1023.744 465.152 0 465.152zM462.08 181.248l-332.8 0 0 121.856 332.8 0L462.08 181.248zM1024 588.032l0 114.176c0 39.168-31.744 70.912-70.912 70.912L70.912 773.12c-39.168 0-70.912-31.744-70.912-70.912l0-114.176L1024 588.032z"  horiz-adv-x="1024" />

    
    </font>
</defs>
</svg>
